M48
; DRILL file {KiCad (6.0.2)} date 2022-02-23T22:02:16 CET
; FORMAT={-:-/ absolute / inch / decimal}
; #@! TF.CreationDate,2022-02-23T22:02:16+01:00
; #@! TF.GenerationSoftware,Kicad,Pcbnew,(6.0.2)
; #@! TF.FileFunction,Plated,1,2,PTH
FMAT,2
INCH
; #@! TA.AperFunction,Plated,PTH,ViaDrill
T1C0.0157
; #@! TA.AperFunction,Plated,PTH,ComponentDrill
T2C0.0197
; #@! TA.AperFunction,Plated,PTH,ComponentDrill
T3C0.0295
; #@! TA.AperFunction,Plated,PTH,ComponentDrill
T4C0.0315
; #@! TA.AperFunction,Plated,PTH,ComponentDrill
T5C0.0370
; #@! TA.AperFunction,Plated,PTH,ComponentDrill
T6C0.0374
; #@! TA.AperFunction,Plated,PTH,ComponentDrill
T7C0.0394
; #@! TA.AperFunction,Plated,PTH,ComponentDrill
T8C0.0433
; #@! TA.AperFunction,Plated,PTH,ComponentDrill
T9C0.0512
; #@! TA.AperFunction,Plated,PTH,ComponentDrill
T10C0.1457
%
G90
G05
T1
X2.082Y-2.453
X2.203Y-2.584
X2.267Y-0.799
X2.3006Y-0.8275
X4.681Y-1.837
X5.541Y-2.076
T2
X2.4937Y-1.5949
X2.4937Y-4.154
X2.5257Y-1.5177
X2.5257Y-1.6722
X2.5257Y-4.0767
X2.5257Y-4.2313
X2.6029Y-1.4857
X2.6029Y-1.7042
X2.6029Y-4.0447
X2.6029Y-4.2633
X2.6802Y-1.5177
X2.6802Y-1.6722
X2.6802Y-4.0767
X2.6802Y-4.2313
X2.7122Y-1.5949
X2.7122Y-4.154
X5.0527Y-1.5949
X5.0527Y-4.154
X5.0847Y-1.5177
X5.0847Y-1.6722
X5.0847Y-4.0767
X5.0847Y-4.2313
X5.162Y-1.4857
X5.162Y-1.7042
X5.162Y-4.0447
X5.162Y-4.2633
X5.2393Y-1.5177
X5.2393Y-1.6722
X5.2393Y-4.0767
X5.2393Y-4.2313
X5.2713Y-1.5949
X5.2713Y-4.154
T3
X5.073Y-5.319
X5.123Y-5.319
X5.173Y-2.9762
X5.173Y-5.319
X5.223Y-2.9762
X5.273Y-2.9762
T4
X1.9521Y-0.9926
X1.9521Y-1.091
X1.971Y-5.286
X2.0694Y-5.286
X2.156Y-2.3976
X2.556Y-2.3976
X2.779Y-5.2186
X2.779Y-5.317
X2.78Y-0.9926
X2.78Y-1.091
X3.2454Y-2.0866
X3.2454Y-2.185
X3.2454Y-2.3866
X3.2454Y-2.485
X3.469Y-5.117
X3.469Y-5.2154
X3.5104Y-2.0866
X3.5104Y-2.185
X3.5104Y-2.3866
X3.5104Y-2.485
X3.608Y-0.9926
X3.608Y-1.091
X3.7365Y-3.4158
X3.7365Y-3.5158
X3.7365Y-3.6158
X3.7365Y-3.7158
X3.7365Y-3.8158
X3.7365Y-3.9158
X3.7365Y-4.0158
X3.8369Y-3.1772
X3.9353Y-3.1772
X4.0365Y-3.4158
X4.0365Y-3.5158
X4.0365Y-3.6158
X4.0365Y-3.7158
X4.0365Y-3.8158
X4.0365Y-3.9158
X4.0365Y-4.0158
X4.2861Y-3.4158
X4.2861Y-3.5158
X4.2861Y-3.6158
X4.2861Y-3.7158
X4.2861Y-3.8158
X4.2861Y-3.9158
X4.2861Y-4.0158
X4.3865Y-3.1772
X4.4849Y-3.1772
X4.5861Y-3.4158
X4.5861Y-3.5158
X4.5861Y-3.6158
X4.5861Y-3.7158
X4.5861Y-3.8158
X4.5861Y-3.9158
X4.5861Y-4.0158
X5.073Y-2.1825
X5.073Y-2.5825
X5.073Y-5.7127
X5.073Y-6.1127
X5.273Y-2.1825
X5.273Y-2.5825
X5.273Y-5.7127
X5.273Y-6.1127
X5.698Y-4.1041
X5.698Y-4.2025
X5.8057Y-1.0491
X5.8057Y-1.4491
X5.849Y-4.1041
X5.849Y-4.2025
X5.943Y-2.5762
X5.943Y-2.9762
X5.959Y-5.319
X5.959Y-5.719
X5.9657Y-1.0491
X6.143Y-2.5762
X6.143Y-2.9762
X6.164Y-5.319
X6.164Y-5.719
X6.312Y-1.9173
X6.312Y-2.0157
X6.312Y-2.1141
X6.312Y-2.2126
X6.3657Y-1.0491
T5
X3.107Y-5.117
X3.107Y-5.217
X3.107Y-5.317
T6
X1.406Y-1.785
X1.406Y-1.8834
X1.406Y-1.9819
X1.406Y-2.2991
X1.406Y-2.3976
X1.406Y-2.496
T7
X1.8318Y-2.7066
X1.8318Y-2.8066
X1.8318Y-2.9066
X2.0806Y-2.7066
X2.0806Y-2.8066
X2.0806Y-2.9066
X2.3294Y-2.7066
X2.3294Y-2.8066
X2.3294Y-2.9066
X2.5782Y-2.7066
X2.5782Y-2.8066
X2.5782Y-2.9066
X2.827Y-2.7066
X2.827Y-2.8066
X2.827Y-2.9066
X3.0758Y-2.7066
X3.0758Y-2.8066
X3.0758Y-2.9066
X3.858Y-1.085
X3.858Y-1.185
X3.858Y-1.285
X3.858Y-1.385
X3.858Y-1.485
X3.858Y-1.585
X3.858Y-1.685
X3.858Y-1.785
X3.858Y-1.885
X3.858Y-1.985
X3.858Y-2.085
X3.858Y-2.185
X3.858Y-2.285
X3.858Y-2.385
X3.858Y-2.485
X4.458Y-1.085
X4.458Y-1.185
X4.458Y-1.285
X4.458Y-1.385
X4.458Y-1.485
X4.458Y-1.585
X4.458Y-1.685
X4.458Y-1.785
X4.458Y-1.885
X4.458Y-1.985
X4.458Y-2.085
X4.458Y-2.185
X4.458Y-2.285
X4.458Y-2.385
X4.458Y-2.485
T8
X1.4101Y-0.9532
X1.4101Y-1.1304
X1.666Y-0.9532
X1.666Y-1.1304
X2.2381Y-0.9532
X2.2381Y-1.1304
X2.494Y-0.9532
X2.494Y-1.1304
X3.0661Y-0.9532
X3.0661Y-1.1304
X3.322Y-0.9532
X3.322Y-1.1304
X5.073Y-3.3699
X5.073Y-3.7636
X5.073Y-4.5316
X5.073Y-4.9253
X5.173Y-3.3699
X5.173Y-4.9253
X5.273Y-3.3699
X5.273Y-3.7636
X5.273Y-4.5316
X5.273Y-4.9253
X5.943Y-3.3699
X5.943Y-3.7636
X5.959Y-4.5316
X5.959Y-4.9253
X6.043Y-3.3699
X6.059Y-4.9253
X6.143Y-3.3699
X6.143Y-3.7636
X6.159Y-4.5316
X6.159Y-4.9253
T9
X1.504Y-5.051
X1.504Y-5.2479
X2.2212Y-5.748
X3.107Y-3.9452
X3.107Y-4.831
X3.107Y-5.748
X6.753Y-1.0491
X6.753Y-1.246
X6.753Y-1.9173
X6.753Y-2.1141
X6.753Y-2.311
X6.833Y-4.0702
X6.833Y-4.2671
T10
X2.6029Y-1.5949
X2.6029Y-4.154
X5.162Y-1.5949
X5.162Y-4.154
T7
G00X1.504Y-5.6689
M15
G01X1.504Y-5.7477
M16
G05
G00X1.5827Y-5.8933
M15
G01X1.6615Y-5.8933
M16
G05
G00X1.7402Y-5.6689
M15
G01X1.7402Y-5.7477
M16
G05
T0
M30
