G04 #@! TF.GenerationSoftware,KiCad,Pcbnew,(6.0.2)*
G04 #@! TF.CreationDate,2022-02-23T22:00:32+01:00*
G04 #@! TF.ProjectId,garagen_pcb,67617261-6765-46e5-9f70-63622e6b6963,rev?*
G04 #@! TF.SameCoordinates,Original*
G04 #@! TF.FileFunction,Copper,L1,Top*
G04 #@! TF.FilePolarity,Positive*
%FSLAX46Y46*%
G04 Gerber Fmt 4.6, Leading zero omitted, Abs format (unit mm)*
G04 Created by KiCad (PCBNEW (6.0.2)) date 2022-02-23 22:00:32*
%MOMM*%
%LPD*%
G01*
G04 APERTURE LIST*
G04 Aperture macros list*
%AMRoundRect*
0 Rectangle with rounded corners*
0 $1 Rounding radius*
0 $2 $3 $4 $5 $6 $7 $8 $9 X,Y pos of 4 corners*
0 Add a 4 corners polygon primitive as box body*
4,1,4,$2,$3,$4,$5,$6,$7,$8,$9,$2,$3,0*
0 Add four circle primitives for the rounded corners*
1,1,$1+$1,$2,$3*
1,1,$1+$1,$4,$5*
1,1,$1+$1,$6,$7*
1,1,$1+$1,$8,$9*
0 Add four rect primitives between the rounded corners*
20,1,$1+$1,$2,$3,$4,$5,0*
20,1,$1+$1,$4,$5,$6,$7,0*
20,1,$1+$1,$6,$7,$8,$9,0*
20,1,$1+$1,$8,$9,$2,$3,0*%
G04 Aperture macros list end*
G04 #@! TA.AperFunction,ComponentPad*
%ADD10C,1.600000*%
G04 #@! TD*
G04 #@! TA.AperFunction,ComponentPad*
%ADD11O,1.600000X1.600000*%
G04 #@! TD*
G04 #@! TA.AperFunction,ComponentPad*
%ADD12R,3.500000X3.500000*%
G04 #@! TD*
G04 #@! TA.AperFunction,ComponentPad*
%ADD13RoundRect,0.750000X-0.750000X-1.000000X0.750000X-1.000000X0.750000X1.000000X-0.750000X1.000000X0*%
G04 #@! TD*
G04 #@! TA.AperFunction,ComponentPad*
%ADD14RoundRect,0.875000X-0.875000X-0.875000X0.875000X-0.875000X0.875000X0.875000X-0.875000X0.875000X0*%
G04 #@! TD*
G04 #@! TA.AperFunction,ComponentPad*
%ADD15RoundRect,0.250000X0.725000X-0.600000X0.725000X0.600000X-0.725000X0.600000X-0.725000X-0.600000X0*%
G04 #@! TD*
G04 #@! TA.AperFunction,ComponentPad*
%ADD16O,1.950000X1.700000*%
G04 #@! TD*
G04 #@! TA.AperFunction,ComponentPad*
%ADD17R,1.448000X1.448000*%
G04 #@! TD*
G04 #@! TA.AperFunction,ComponentPad*
%ADD18C,1.448000*%
G04 #@! TD*
G04 #@! TA.AperFunction,SMDPad,CuDef*
%ADD19RoundRect,0.150000X0.825000X0.150000X-0.825000X0.150000X-0.825000X-0.150000X0.825000X-0.150000X0*%
G04 #@! TD*
G04 #@! TA.AperFunction,ComponentPad*
%ADD20R,1.600000X1.600000*%
G04 #@! TD*
G04 #@! TA.AperFunction,ComponentPad*
%ADD21C,0.800000*%
G04 #@! TD*
G04 #@! TA.AperFunction,ComponentPad*
%ADD22C,7.400000*%
G04 #@! TD*
G04 #@! TA.AperFunction,ComponentPad*
%ADD23R,1.700000X1.700000*%
G04 #@! TD*
G04 #@! TA.AperFunction,ComponentPad*
%ADD24O,1.700000X1.700000*%
G04 #@! TD*
G04 #@! TA.AperFunction,ComponentPad*
%ADD25R,2.600000X2.600000*%
G04 #@! TD*
G04 #@! TA.AperFunction,ComponentPad*
%ADD26C,2.600000*%
G04 #@! TD*
G04 #@! TA.AperFunction,ComponentPad*
%ADD27R,2.000000X2.000000*%
G04 #@! TD*
G04 #@! TA.AperFunction,ComponentPad*
%ADD28O,2.000000X2.000000*%
G04 #@! TD*
G04 #@! TA.AperFunction,ComponentPad*
%ADD29R,1.050000X1.500000*%
G04 #@! TD*
G04 #@! TA.AperFunction,ComponentPad*
%ADD30O,1.050000X1.500000*%
G04 #@! TD*
G04 #@! TA.AperFunction,ComponentPad*
%ADD31C,3.000000*%
G04 #@! TD*
G04 #@! TA.AperFunction,ComponentPad*
%ADD32R,1.905000X2.000000*%
G04 #@! TD*
G04 #@! TA.AperFunction,ComponentPad*
%ADD33O,1.905000X2.000000*%
G04 #@! TD*
G04 #@! TA.AperFunction,ComponentPad*
%ADD34C,2.000000*%
G04 #@! TD*
G04 #@! TA.AperFunction,ViaPad*
%ADD35C,0.800000*%
G04 #@! TD*
G04 #@! TA.AperFunction,Conductor*
%ADD36C,0.500000*%
G04 #@! TD*
G04 #@! TA.AperFunction,Conductor*
%ADD37C,0.250000*%
G04 #@! TD*
G04 #@! TA.AperFunction,Conductor*
%ADD38C,1.000000*%
G04 #@! TD*
G04 APERTURE END LIST*
D10*
X156032200Y-65435200D03*
D11*
X156032200Y-75595200D03*
D12*
X44201600Y-144990900D03*
D13*
X38201600Y-144990900D03*
D14*
X41201600Y-149690900D03*
D15*
X35712400Y-50339000D03*
D16*
X35712400Y-47839000D03*
X35712400Y-45339000D03*
D10*
X70612960Y-25211400D03*
X70612960Y-27711400D03*
D17*
X78917800Y-135051800D03*
D18*
X78917800Y-132511800D03*
X78917800Y-129971800D03*
D19*
X157592800Y-107399000D03*
X157592800Y-106129000D03*
X157592800Y-104859000D03*
X157592800Y-103589000D03*
X152642800Y-103589000D03*
X152642800Y-104859000D03*
X152642800Y-106129000D03*
X152642800Y-107399000D03*
D20*
X108867150Y-86761400D03*
D11*
X108867150Y-89301400D03*
X108867150Y-91841400D03*
X108867150Y-94381400D03*
X108867150Y-96921400D03*
X108867150Y-99461400D03*
X108867150Y-102001400D03*
X116487150Y-102001400D03*
X116487150Y-99461400D03*
X116487150Y-96921400D03*
X116487150Y-94381400D03*
X116487150Y-91841400D03*
X116487150Y-89301400D03*
X116487150Y-86761400D03*
D10*
X160324800Y-53699400D03*
X160324800Y-56199400D03*
D21*
X133077021Y-103549379D03*
X128339800Y-105511600D03*
X129152579Y-107473821D03*
D22*
X131114800Y-105511600D03*
D21*
X131114800Y-102736600D03*
X131114800Y-108286600D03*
X133889800Y-105511600D03*
X133077021Y-107473821D03*
X129152579Y-103549379D03*
D10*
X144729200Y-106744000D03*
X144729200Y-104244000D03*
D23*
X59166760Y-68747400D03*
D24*
X59166760Y-71287400D03*
X59166760Y-73827400D03*
D10*
X147464400Y-36808400D03*
D11*
X147464400Y-26648400D03*
D10*
X148564600Y-106744000D03*
X148564600Y-104244000D03*
D20*
X94907150Y-86761400D03*
D11*
X94907150Y-89301400D03*
X94907150Y-91841400D03*
X94907150Y-94381400D03*
X94907150Y-96921400D03*
X94907150Y-99461400D03*
X94907150Y-102001400D03*
X102527150Y-102001400D03*
X102527150Y-99461400D03*
X102527150Y-96921400D03*
X102527150Y-94381400D03*
X102527150Y-91841400D03*
X102527150Y-89301400D03*
X102527150Y-86761400D03*
D23*
X52847240Y-68747400D03*
D24*
X52847240Y-71287400D03*
X52847240Y-73827400D03*
D10*
X160324800Y-48699400D03*
X160324800Y-51199400D03*
X49582720Y-25211400D03*
X49582720Y-27711400D03*
D25*
X171526200Y-31648400D03*
D26*
X171526200Y-26648400D03*
D10*
X150952200Y-65435200D03*
D11*
X150952200Y-75595200D03*
D10*
X64922400Y-60898400D03*
D11*
X54762400Y-60898400D03*
D15*
X35712400Y-63398400D03*
D16*
X35712400Y-60898400D03*
X35712400Y-58398400D03*
D10*
X82433000Y-63119000D03*
X82433000Y-60619000D03*
D21*
X68077021Y-38549379D03*
X66114800Y-43286600D03*
X64152579Y-42473821D03*
X68889800Y-40511600D03*
X66114800Y-37736600D03*
X63339800Y-40511600D03*
D22*
X66114800Y-40511600D03*
D21*
X68077021Y-42473821D03*
X64152579Y-38549379D03*
D27*
X150952200Y-95595200D03*
D28*
X156032200Y-95595200D03*
D27*
X128854200Y-95595200D03*
D28*
X133934200Y-95595200D03*
D29*
X133934200Y-75595200D03*
D30*
X132664200Y-75595200D03*
X131394200Y-75595200D03*
D27*
X133934200Y-115102600D03*
D28*
X128854200Y-115102600D03*
D21*
X66114800Y-108286600D03*
D22*
X66114800Y-105511600D03*
D21*
X64152579Y-103549379D03*
X68077021Y-103549379D03*
X66114800Y-102736600D03*
X68077021Y-107473821D03*
X64152579Y-107473821D03*
X63339800Y-105511600D03*
X68889800Y-105511600D03*
D20*
X88112600Y-129971800D03*
D10*
X88112600Y-132471800D03*
D27*
X156438600Y-115102600D03*
D28*
X151358600Y-115102600D03*
D10*
X151358600Y-145262600D03*
D11*
X151358600Y-135102600D03*
D23*
X71805800Y-68747400D03*
D24*
X71805800Y-71287400D03*
X71805800Y-73827400D03*
D31*
X78917800Y-145999200D03*
X56417800Y-145999200D03*
D32*
X133934200Y-85595200D03*
D33*
X131394200Y-85595200D03*
X128854200Y-85595200D03*
D31*
X78917800Y-100207400D03*
X78917800Y-122707400D03*
D10*
X91643200Y-25211400D03*
X91643200Y-27711400D03*
D20*
X70586600Y-135051800D03*
D10*
X70586600Y-132551800D03*
D34*
X84378080Y-24211400D03*
X77878080Y-24211400D03*
X84378080Y-28711400D03*
X77878080Y-28711400D03*
D10*
X113917150Y-80700800D03*
X111417150Y-80700800D03*
D34*
X56847840Y-24211400D03*
X63347840Y-24211400D03*
X56847840Y-28711400D03*
X63347840Y-28711400D03*
D23*
X78125320Y-68747400D03*
D24*
X78125320Y-71287400D03*
X78125320Y-73827400D03*
D10*
X82433000Y-55499000D03*
X82433000Y-52999000D03*
D32*
X128854200Y-125102600D03*
D33*
X131394200Y-125102600D03*
X133934200Y-125102600D03*
D23*
X65486280Y-68747400D03*
D24*
X65486280Y-71287400D03*
X65486280Y-73827400D03*
D20*
X89164000Y-63119000D03*
D10*
X89164000Y-60619000D03*
X133934200Y-55435200D03*
D11*
X133934200Y-65595200D03*
D25*
X173558200Y-108384200D03*
D26*
X173558200Y-103384200D03*
D25*
X38201600Y-128295400D03*
D26*
X38201600Y-133295400D03*
D29*
X128854200Y-135102600D03*
D30*
X130124200Y-135102600D03*
X131394200Y-135102600D03*
D10*
X151528400Y-26648400D03*
D11*
X161688400Y-26648400D03*
D32*
X156032200Y-85595200D03*
D33*
X153492200Y-85595200D03*
X150952200Y-85595200D03*
D10*
X133934200Y-155262600D03*
D11*
X133934200Y-145102600D03*
D32*
X151358600Y-125102600D03*
D33*
X153898600Y-125102600D03*
X156438600Y-125102600D03*
D10*
X128854200Y-65595200D03*
D11*
X128854200Y-55435200D03*
D23*
X46527720Y-68747400D03*
D24*
X46527720Y-71287400D03*
X46527720Y-73827400D03*
D20*
X89164000Y-55499000D03*
D10*
X89164000Y-52999000D03*
D20*
X113233200Y-63119000D03*
D11*
X113233200Y-60579000D03*
X113233200Y-58039000D03*
X113233200Y-55499000D03*
X113233200Y-52959000D03*
X113233200Y-50419000D03*
X113233200Y-47879000D03*
X113233200Y-45339000D03*
X113233200Y-42799000D03*
X113233200Y-40259000D03*
X113233200Y-37719000D03*
X113233200Y-35179000D03*
X113233200Y-32639000D03*
X113233200Y-30099000D03*
X113233200Y-27559000D03*
X97993200Y-27559000D03*
X97993200Y-30099000D03*
X97993200Y-32639000D03*
X97993200Y-35179000D03*
X97993200Y-37719000D03*
X97993200Y-40259000D03*
X97993200Y-42799000D03*
X97993200Y-45339000D03*
X97993200Y-47879000D03*
X97993200Y-50419000D03*
X97993200Y-52959000D03*
X97993200Y-55499000D03*
X97993200Y-58039000D03*
X97993200Y-60579000D03*
X97993200Y-63119000D03*
D25*
X171526200Y-58699400D03*
D26*
X171526200Y-53699400D03*
X171526200Y-48699400D03*
D34*
X35817600Y-24211400D03*
X42317600Y-24211400D03*
X42317600Y-28711400D03*
X35817600Y-28711400D03*
D20*
X50063400Y-134264400D03*
D10*
X52563400Y-134264400D03*
D21*
X129152579Y-42473821D03*
X133077021Y-42473821D03*
D22*
X131114800Y-40511600D03*
D21*
X131114800Y-37736600D03*
X131114800Y-43286600D03*
X133077021Y-38549379D03*
X128339800Y-40511600D03*
X129152579Y-38549379D03*
X133889800Y-40511600D03*
D10*
X99957150Y-80700800D03*
X97457150Y-80700800D03*
X156565600Y-145262600D03*
D11*
X156565600Y-135102600D03*
D10*
X128854200Y-145102600D03*
D11*
X128854200Y-155262600D03*
D35*
X58434979Y-21019100D03*
X55956200Y-65633600D03*
X57581800Y-20294600D03*
X52882800Y-62306200D03*
X118897400Y-46659800D03*
X140741400Y-52730400D03*
D36*
X149219600Y-103589000D02*
X148564600Y-104244000D01*
X152642800Y-103589000D02*
X149219600Y-103589000D01*
D37*
X106959400Y-59232800D02*
X113233200Y-52959000D01*
X82143600Y-59258200D02*
X106959400Y-59258200D01*
X106959400Y-59258200D02*
X106959400Y-59232800D01*
X79299831Y-70112889D02*
X79299831Y-62101969D01*
X78125320Y-71287400D02*
X79299831Y-70112889D01*
X79299831Y-62101969D02*
X82143600Y-59258200D01*
X72980311Y-67785771D02*
X72980311Y-70112889D01*
X72980311Y-70112889D02*
X71805800Y-71287400D01*
X113233200Y-50419000D02*
X107028689Y-56623511D01*
X82904882Y-57861200D02*
X72980311Y-67785771D01*
X93160289Y-56623511D02*
X91922600Y-57861200D01*
X91922600Y-57861200D02*
X82904882Y-57861200D01*
X107028689Y-56623511D02*
X93160289Y-56623511D01*
X101613300Y-21019100D02*
X58434979Y-21019100D01*
X55956200Y-68178440D02*
X52847240Y-71287400D01*
X102006400Y-21412200D02*
X101613300Y-21019100D01*
X55956200Y-65633600D02*
X55956200Y-68178440D01*
X113233200Y-32639000D02*
X102006400Y-21412200D01*
X113233200Y-40259000D02*
X95861089Y-22886889D01*
X48582720Y-24211400D02*
X49582720Y-25211400D01*
X35817600Y-24211400D02*
X48582720Y-24211400D01*
X51907231Y-22886889D02*
X49582720Y-25211400D01*
X95861089Y-22886889D02*
X51907231Y-22886889D01*
D36*
X64922400Y-60898400D02*
X76651311Y-49169489D01*
X111942711Y-49169489D02*
X113233200Y-47879000D01*
X76651311Y-49169489D02*
X111942711Y-49169489D01*
X97993200Y-45339000D02*
X35712400Y-45339000D01*
D37*
X52882800Y-64932320D02*
X46527720Y-71287400D01*
X103428800Y-20294600D02*
X57581800Y-20294600D01*
X113233200Y-30099000D02*
X103428800Y-20294600D01*
X52882800Y-62306200D02*
X52882800Y-64932320D01*
X78713882Y-50419000D02*
X97993200Y-50419000D01*
X73083480Y-57370680D02*
X73083480Y-56049402D01*
X73083480Y-56049402D02*
X78713882Y-50419000D01*
X59166760Y-71287400D02*
X73083480Y-57370680D01*
X105026750Y-93141800D02*
X108867150Y-89301400D01*
X108867150Y-86761400D02*
X108867150Y-89301400D01*
X98686750Y-93141800D02*
X105026750Y-93141800D01*
X94907150Y-96921400D02*
X98686750Y-93141800D01*
D36*
X82433000Y-55499000D02*
X97993200Y-55499000D01*
D37*
X93782639Y-99927189D02*
X94490250Y-100634800D01*
X94907150Y-89301400D02*
X93782639Y-90425911D01*
X105153750Y-100634800D02*
X108867150Y-96921400D01*
X94490250Y-100634800D02*
X105153750Y-100634800D01*
X94907150Y-86761400D02*
X94907150Y-89301400D01*
X93782639Y-90425911D02*
X93782639Y-99927189D01*
X73533000Y-63240680D02*
X65486280Y-71287400D01*
X73533000Y-56235600D02*
X73533000Y-63240680D01*
X97993200Y-52959000D02*
X96908689Y-51874489D01*
X96908689Y-51874489D02*
X77894111Y-51874489D01*
X77894111Y-51874489D02*
X73533000Y-56235600D01*
X101854000Y-46659800D02*
X97993200Y-42799000D01*
X153942320Y-101186520D02*
X140741400Y-87985600D01*
X140741400Y-87985600D02*
X140741400Y-52730400D01*
X153942320Y-105205552D02*
X153942320Y-101186520D01*
X152642800Y-106129000D02*
X153018872Y-106129000D01*
X118897400Y-46659800D02*
X101854000Y-46659800D01*
X153018872Y-106129000D02*
X153942320Y-105205552D01*
D36*
X97953200Y-47839000D02*
X97993200Y-47879000D01*
X35712400Y-47839000D02*
X97953200Y-47839000D01*
X152642800Y-104859000D02*
X150449600Y-104859000D01*
X150449600Y-104859000D02*
X148564600Y-106744000D01*
D37*
X128854200Y-135102600D02*
X128854200Y-145102600D01*
X128854200Y-135102600D02*
X128854200Y-125102600D01*
X133934200Y-75595200D02*
X133934200Y-85595200D01*
D38*
X128854200Y-85595200D02*
X126873000Y-83614000D01*
X126873000Y-83614000D02*
X126873000Y-64363600D01*
D36*
X126868089Y-64368511D02*
X126873000Y-64363600D01*
D38*
X137998200Y-157200600D02*
X137998200Y-129166600D01*
X78917800Y-145999200D02*
X78917800Y-135051800D01*
X70586600Y-135051800D02*
X78917800Y-135051800D01*
X177495200Y-140614400D02*
X177495200Y-37617400D01*
D36*
X97993200Y-63119000D02*
X99242711Y-64368511D01*
D38*
X133934200Y-125102600D02*
X133934200Y-115102600D01*
X137998200Y-129166600D02*
X133934200Y-125102600D01*
X156286200Y-42824400D02*
X167462200Y-31648400D01*
X128854200Y-157200600D02*
X90119200Y-157200600D01*
X167462200Y-31648400D02*
X171526200Y-31648400D01*
X128854200Y-55435200D02*
X141465000Y-42824400D01*
X141465000Y-42824400D02*
X156286200Y-42824400D01*
X177495200Y-37617400D02*
X171526200Y-31648400D01*
X90119200Y-157200600D02*
X78917800Y-145999200D01*
X128854200Y-95595200D02*
X128854200Y-85595200D01*
X128854200Y-155262600D02*
X128854200Y-157200600D01*
X126873000Y-64363600D02*
X126873000Y-57416400D01*
X160909000Y-157200600D02*
X177495200Y-140614400D01*
D36*
X99242711Y-64368511D02*
X126868089Y-64368511D01*
D38*
X126873000Y-57416400D02*
X128854200Y-55435200D01*
D36*
X82433000Y-63119000D02*
X97993200Y-63119000D01*
D38*
X137998200Y-157200600D02*
X160909000Y-157200600D01*
X137998200Y-157200600D02*
X128854200Y-157200600D01*
D37*
X151358600Y-135102600D02*
X151358600Y-125102600D01*
X156565600Y-135102600D02*
X151358600Y-135102600D01*
X156032200Y-75595200D02*
X156032200Y-85595200D01*
X150952200Y-75595200D02*
X156032200Y-75595200D01*
X171526200Y-26648400D02*
X161688400Y-26648400D01*
D38*
X44201600Y-134295400D02*
X44201600Y-144990900D01*
X56417800Y-145999200D02*
X45209900Y-145999200D01*
X44232600Y-134264400D02*
X44201600Y-134295400D01*
X45209900Y-145999200D02*
X44201600Y-144990900D01*
X50063400Y-134264400D02*
X44232600Y-134264400D01*
X38201600Y-128295400D02*
X44201600Y-134295400D01*
X78917800Y-129971800D02*
X88112600Y-129971800D01*
X78917800Y-129971800D02*
X78917800Y-122707400D01*
D37*
X160324800Y-53699400D02*
X171526200Y-53699400D01*
X171526200Y-48699400D02*
X160324800Y-48699400D01*
X151528400Y-26648400D02*
X147464400Y-26648400D01*
D36*
X54762400Y-60898400D02*
X35712400Y-60898400D01*
D37*
X130124200Y-135102600D02*
X130124200Y-141292600D01*
X130124200Y-141292600D02*
X133934200Y-145102600D01*
X132664200Y-66865200D02*
X133934200Y-65595200D01*
X132664200Y-75595200D02*
X132664200Y-66865200D01*
X70612960Y-25211400D02*
X79165071Y-33763511D01*
X69612960Y-24211400D02*
X70612960Y-25211400D01*
X56847840Y-24211400D02*
X69612960Y-24211400D01*
X79165071Y-33763511D02*
X101657711Y-33763511D01*
X101657711Y-33763511D02*
X113233200Y-45339000D01*
X91643200Y-25339300D02*
X97527411Y-31223511D01*
X97527411Y-31223511D02*
X101657711Y-31223511D01*
X77878080Y-24211400D02*
X90643200Y-24211400D01*
X91643200Y-25211400D02*
X91643200Y-25339300D01*
X90643200Y-24211400D02*
X91643200Y-25211400D01*
X101657711Y-31223511D02*
X113233200Y-42799000D01*
D38*
X131394200Y-85595200D02*
X131394200Y-93055200D01*
X131394200Y-93055200D02*
X133934200Y-95595200D01*
X160741200Y-103384200D02*
X173558200Y-103384200D01*
X150952200Y-95595200D02*
X152952200Y-95595200D01*
X153492200Y-85595200D02*
X153492200Y-93055200D01*
X153492200Y-93055200D02*
X150952200Y-95595200D01*
X152952200Y-95595200D02*
X160741200Y-103384200D01*
X157592800Y-106129000D02*
X157592800Y-113948400D01*
X157592800Y-113948400D02*
X156438600Y-115102600D01*
X157592800Y-104859000D02*
X157592800Y-103589000D01*
X157592800Y-103589000D02*
X157592800Y-103821000D01*
X173558200Y-108384200D02*
X170033000Y-104859000D01*
X157592800Y-103821000D02*
X158630800Y-104859000D01*
X170033000Y-104859000D02*
X158630800Y-104859000D01*
X158630800Y-104859000D02*
X157592800Y-104859000D01*
D37*
X133934200Y-155262600D02*
X102527150Y-123855550D01*
X102527150Y-123855550D02*
X102527150Y-102001400D01*
X146481800Y-114833400D02*
X146481800Y-140385800D01*
X127637778Y-111455200D02*
X143103600Y-111455200D01*
X116487150Y-102001400D02*
X118183978Y-102001400D01*
X118183978Y-102001400D02*
X127637778Y-111455200D01*
X143103600Y-111455200D02*
X146481800Y-114833400D01*
X146481800Y-140385800D02*
X151358600Y-145262600D01*
X102527150Y-96921400D02*
X102527150Y-99461400D01*
X102527150Y-99461400D02*
X94907150Y-99461400D01*
X94907150Y-91841400D02*
X94907150Y-94381400D01*
X116487150Y-96921400D02*
X116487150Y-99461400D01*
X116487150Y-99461400D02*
X108867150Y-99461400D01*
X108867150Y-91841400D02*
X108867150Y-94381400D01*
D36*
X30632400Y-63478400D02*
X30632400Y-73406000D01*
X35712400Y-58398400D02*
X30632400Y-63478400D01*
G04 #@! TA.AperFunction,Conductor*
G36*
X140049330Y-71371431D02*
G01*
X140096171Y-71424783D01*
X140107900Y-71477870D01*
X140107900Y-87906833D01*
X140107373Y-87918016D01*
X140105698Y-87925509D01*
X140105947Y-87933435D01*
X140105947Y-87933436D01*
X140107838Y-87993586D01*
X140107900Y-87997545D01*
X140107900Y-88025456D01*
X140108397Y-88029390D01*
X140108397Y-88029391D01*
X140108405Y-88029456D01*
X140109338Y-88041293D01*
X140110727Y-88085489D01*
X140116378Y-88104939D01*
X140120387Y-88124300D01*
X140122926Y-88144397D01*
X140125845Y-88151768D01*
X140125845Y-88151770D01*
X140139204Y-88185512D01*
X140143049Y-88196742D01*
X140155382Y-88239193D01*
X140159415Y-88246012D01*
X140159417Y-88246017D01*
X140165693Y-88256628D01*
X140174388Y-88274376D01*
X140181848Y-88293217D01*
X140186510Y-88299633D01*
X140186510Y-88299634D01*
X140207836Y-88328987D01*
X140214352Y-88338907D01*
X140236858Y-88376962D01*
X140251179Y-88391283D01*
X140264019Y-88406316D01*
X140275928Y-88422707D01*
X140282034Y-88427758D01*
X140310005Y-88450898D01*
X140318784Y-88458888D01*
X153271915Y-101412020D01*
X153305941Y-101474332D01*
X153308820Y-101501115D01*
X153308820Y-102654500D01*
X153288818Y-102722621D01*
X153235162Y-102769114D01*
X153182820Y-102780500D01*
X151751298Y-102780500D01*
X151748850Y-102780693D01*
X151748842Y-102780693D01*
X151720379Y-102782933D01*
X151720374Y-102782934D01*
X151713969Y-102783438D01*
X151707793Y-102785232D01*
X151707789Y-102785233D01*
X151569198Y-102825497D01*
X151534046Y-102830500D01*
X149286670Y-102830500D01*
X149267720Y-102829067D01*
X149253485Y-102826901D01*
X149253481Y-102826901D01*
X149246251Y-102825801D01*
X149238959Y-102826394D01*
X149238956Y-102826394D01*
X149193582Y-102830085D01*
X149183367Y-102830500D01*
X149175307Y-102830500D01*
X149171673Y-102830924D01*
X149171667Y-102830924D01*
X149160090Y-102832274D01*
X149147080Y-102833791D01*
X149142732Y-102834221D01*
X149069964Y-102840140D01*
X149063003Y-102842395D01*
X149057063Y-102843582D01*
X149051188Y-102844971D01*
X149043919Y-102845818D01*
X148975270Y-102870736D01*
X148971142Y-102872153D01*
X148908664Y-102892393D01*
X148908662Y-102892394D01*
X148901701Y-102894649D01*
X148895446Y-102898445D01*
X148889972Y-102900951D01*
X148884543Y-102903670D01*
X148877663Y-102906167D01*
X148844598Y-102927846D01*
X148776664Y-102948468D01*
X148764537Y-102947994D01*
X148564600Y-102930502D01*
X148336513Y-102950457D01*
X148331200Y-102951881D01*
X148331198Y-102951881D01*
X148120667Y-103008293D01*
X148120665Y-103008294D01*
X148115357Y-103009716D01*
X148110376Y-103012039D01*
X148110375Y-103012039D01*
X147912838Y-103104151D01*
X147912833Y-103104154D01*
X147907851Y-103106477D01*
X147812792Y-103173038D01*
X147724811Y-103234643D01*
X147724808Y-103234645D01*
X147720300Y-103237802D01*
X147558402Y-103399700D01*
X147427077Y-103587251D01*
X147424754Y-103592233D01*
X147424751Y-103592238D01*
X147337123Y-103780159D01*
X147330316Y-103794757D01*
X147328894Y-103800065D01*
X147328893Y-103800067D01*
X147301273Y-103903146D01*
X147271057Y-104015913D01*
X147251102Y-104244000D01*
X147271057Y-104472087D01*
X147272481Y-104477400D01*
X147272481Y-104477402D01*
X147314857Y-104635548D01*
X147330316Y-104693243D01*
X147332639Y-104698224D01*
X147332639Y-104698225D01*
X147424751Y-104895762D01*
X147424754Y-104895767D01*
X147427077Y-104900749D01*
X147558402Y-105088300D01*
X147720300Y-105250198D01*
X147724808Y-105253355D01*
X147724811Y-105253357D01*
X147770833Y-105285582D01*
X147907851Y-105381523D01*
X147912833Y-105383846D01*
X147914627Y-105384882D01*
X147963619Y-105436266D01*
X147977054Y-105505979D01*
X147950666Y-105571890D01*
X147914627Y-105603118D01*
X147912833Y-105604154D01*
X147907851Y-105606477D01*
X147839403Y-105654405D01*
X147724811Y-105734643D01*
X147724808Y-105734645D01*
X147720300Y-105737802D01*
X147558402Y-105899700D01*
X147555245Y-105904208D01*
X147555243Y-105904211D01*
X147547711Y-105914968D01*
X147427077Y-106087251D01*
X147424754Y-106092233D01*
X147424751Y-106092238D01*
X147424634Y-106092489D01*
X147330316Y-106294757D01*
X147328894Y-106300065D01*
X147328893Y-106300067D01*
X147308434Y-106376421D01*
X147271057Y-106515913D01*
X147251102Y-106744000D01*
X147271057Y-106972087D01*
X147272481Y-106977400D01*
X147272481Y-106977402D01*
X147316507Y-107141706D01*
X147330316Y-107193243D01*
X147332639Y-107198224D01*
X147332639Y-107198225D01*
X147424751Y-107395762D01*
X147424754Y-107395767D01*
X147427077Y-107400749D01*
X147558402Y-107588300D01*
X147720300Y-107750198D01*
X147724808Y-107753355D01*
X147724811Y-107753357D01*
X147798265Y-107804790D01*
X147907851Y-107881523D01*
X147912833Y-107883846D01*
X147912838Y-107883849D01*
X148039445Y-107942886D01*
X148115357Y-107978284D01*
X148120665Y-107979706D01*
X148120667Y-107979707D01*
X148331198Y-108036119D01*
X148331200Y-108036119D01*
X148336513Y-108037543D01*
X148564600Y-108057498D01*
X148792687Y-108037543D01*
X148798000Y-108036119D01*
X148798002Y-108036119D01*
X149008533Y-107979707D01*
X149008535Y-107979706D01*
X149013843Y-107978284D01*
X149089755Y-107942886D01*
X149216362Y-107883849D01*
X149216367Y-107883846D01*
X149221349Y-107881523D01*
X149330935Y-107804790D01*
X149404389Y-107753357D01*
X149404392Y-107753355D01*
X149408900Y-107750198D01*
X149494227Y-107664871D01*
X151166256Y-107664871D01*
X151206907Y-107804790D01*
X151213152Y-107819221D01*
X151289711Y-107948678D01*
X151299351Y-107961104D01*
X151405696Y-108067449D01*
X151418122Y-108077089D01*
X151547579Y-108153648D01*
X151562010Y-108159893D01*
X151707865Y-108202269D01*
X151720467Y-108204570D01*
X151748884Y-108206807D01*
X151753814Y-108207000D01*
X152370685Y-108207000D01*
X152385924Y-108202525D01*
X152387129Y-108201135D01*
X152388800Y-108193452D01*
X152388800Y-108188884D01*
X152896800Y-108188884D01*
X152901275Y-108204123D01*
X152902665Y-108205328D01*
X152910348Y-108206999D01*
X153531784Y-108206999D01*
X153536720Y-108206805D01*
X153565136Y-108204570D01*
X153577731Y-108202270D01*
X153723590Y-108159893D01*
X153738021Y-108153648D01*
X153867478Y-108077089D01*
X153879904Y-108067449D01*
X153986249Y-107961104D01*
X153995889Y-107948678D01*
X154072448Y-107819221D01*
X154078693Y-107804790D01*
X154117739Y-107670395D01*
X154117699Y-107656294D01*
X154110430Y-107653000D01*
X152914915Y-107653000D01*
X152899676Y-107657475D01*
X152898471Y-107658865D01*
X152896800Y-107666548D01*
X152896800Y-108188884D01*
X152388800Y-108188884D01*
X152388800Y-107671115D01*
X152384325Y-107655876D01*
X152382935Y-107654671D01*
X152375252Y-107653000D01*
X151180922Y-107653000D01*
X151167391Y-107656973D01*
X151166256Y-107664871D01*
X149494227Y-107664871D01*
X149570798Y-107588300D01*
X149702123Y-107400749D01*
X149704446Y-107395767D01*
X149704449Y-107395762D01*
X149796561Y-107198225D01*
X149796561Y-107198224D01*
X149798884Y-107193243D01*
X149812694Y-107141706D01*
X149856719Y-106977402D01*
X149856719Y-106977400D01*
X149858143Y-106972087D01*
X149878098Y-106744000D01*
X149863845Y-106581087D01*
X149877834Y-106511482D01*
X149900271Y-106481010D01*
X150726876Y-105654405D01*
X150789188Y-105620379D01*
X150815971Y-105617500D01*
X151069281Y-105617500D01*
X151137402Y-105637502D01*
X151183895Y-105691158D01*
X151193999Y-105761432D01*
X151190278Y-105778652D01*
X151164542Y-105867237D01*
X151162238Y-105875169D01*
X151159300Y-105912498D01*
X151159300Y-106345502D01*
X151159493Y-106347950D01*
X151159493Y-106347958D01*
X151161384Y-106371978D01*
X151162238Y-106382831D01*
X151164033Y-106389008D01*
X151202494Y-106521393D01*
X151208655Y-106542601D01*
X151293347Y-106685807D01*
X151296287Y-106688747D01*
X151321620Y-106753266D01*
X151307721Y-106822889D01*
X151295674Y-106841636D01*
X151289710Y-106849324D01*
X151213152Y-106978779D01*
X151206907Y-106993210D01*
X151167861Y-107127605D01*
X151167901Y-107141706D01*
X151175170Y-107145000D01*
X154104678Y-107145000D01*
X154118209Y-107141027D01*
X154119344Y-107133129D01*
X154078693Y-106993210D01*
X154072448Y-106978779D01*
X153995889Y-106849323D01*
X153989929Y-106841640D01*
X153963980Y-106775556D01*
X153977878Y-106705933D01*
X153988221Y-106689839D01*
X153992253Y-106685807D01*
X154076945Y-106542601D01*
X154083107Y-106521393D01*
X154121567Y-106389008D01*
X154123362Y-106382831D01*
X154124217Y-106371978D01*
X154126107Y-106347958D01*
X154126107Y-106347950D01*
X154126300Y-106345502D01*
X154126300Y-105969666D01*
X154146302Y-105901545D01*
X154163205Y-105880571D01*
X154334567Y-105709209D01*
X154342857Y-105701665D01*
X154349338Y-105697552D01*
X154395979Y-105647884D01*
X154398733Y-105645043D01*
X154418455Y-105625321D01*
X154420939Y-105622119D01*
X154428637Y-105613107D01*
X154453481Y-105586650D01*
X154458906Y-105580873D01*
X154468667Y-105563118D01*
X154479518Y-105546599D01*
X154491934Y-105530593D01*
X154502461Y-105506267D01*
X154509494Y-105490015D01*
X154514711Y-105479365D01*
X154536015Y-105440612D01*
X154541053Y-105420989D01*
X154547457Y-105402286D01*
X154552353Y-105390972D01*
X154552353Y-105390971D01*
X154555501Y-105383697D01*
X154556740Y-105375874D01*
X154556743Y-105375864D01*
X154562419Y-105340028D01*
X154564825Y-105328408D01*
X154573848Y-105293263D01*
X154573848Y-105293262D01*
X154575820Y-105285582D01*
X154575820Y-105265328D01*
X154577371Y-105245617D01*
X154579300Y-105233438D01*
X154580540Y-105225609D01*
X154576379Y-105181590D01*
X154575820Y-105169733D01*
X154575820Y-101265287D01*
X154576347Y-101254104D01*
X154578022Y-101246611D01*
X154575882Y-101178534D01*
X154575820Y-101174575D01*
X154575820Y-101146664D01*
X154575315Y-101142664D01*
X154574382Y-101130821D01*
X154573242Y-101094549D01*
X154572993Y-101086630D01*
X154567342Y-101067178D01*
X154563334Y-101047826D01*
X154561787Y-101035583D01*
X154560794Y-101027723D01*
X154557876Y-101020352D01*
X154544520Y-100986617D01*
X154540675Y-100975390D01*
X154536250Y-100960159D01*
X154528338Y-100932927D01*
X154518027Y-100915492D01*
X154509332Y-100897744D01*
X154501872Y-100878903D01*
X154475884Y-100843133D01*
X154469368Y-100833213D01*
X154450900Y-100801985D01*
X154450898Y-100801982D01*
X154446862Y-100795158D01*
X154432541Y-100780837D01*
X154419700Y-100765803D01*
X154412451Y-100755826D01*
X154407792Y-100749413D01*
X154373715Y-100721222D01*
X154364936Y-100713232D01*
X150970499Y-97318795D01*
X150936473Y-97256483D01*
X150941538Y-97185668D01*
X150984085Y-97128832D01*
X151050605Y-97104021D01*
X151059594Y-97103700D01*
X152000334Y-97103700D01*
X152062516Y-97096945D01*
X152198905Y-97045815D01*
X152315461Y-96958461D01*
X152402815Y-96841905D01*
X152434966Y-96756143D01*
X152477608Y-96699379D01*
X152544169Y-96674679D01*
X152613518Y-96689887D01*
X152642043Y-96711278D01*
X155152705Y-99221940D01*
X155186731Y-99284252D01*
X155189600Y-99312533D01*
X155069579Y-109367652D01*
X155068852Y-109428596D01*
X155048038Y-109496473D01*
X154993832Y-109542322D01*
X154941964Y-109553089D01*
X133268511Y-109398738D01*
X133200534Y-109378251D01*
X133154425Y-109324266D01*
X133144821Y-109253922D01*
X133174774Y-109189553D01*
X133207171Y-109163185D01*
X133369873Y-109070758D01*
X133369881Y-109070753D01*
X133372546Y-109069239D01*
X133386758Y-109059214D01*
X133706404Y-108833728D01*
X133708936Y-108831942D01*
X133729213Y-108814440D01*
X134018226Y-108564970D01*
X134020564Y-108562952D01*
X134022685Y-108560725D01*
X134022691Y-108560719D01*
X134302338Y-108267060D01*
X134304455Y-108264837D01*
X134349643Y-108207000D01*
X134555991Y-107942886D01*
X134555993Y-107942883D01*
X134557901Y-107940441D01*
X134559557Y-107937831D01*
X134559563Y-107937823D01*
X134627950Y-107830062D01*
X144007693Y-107830062D01*
X144016989Y-107842077D01*
X144068194Y-107877931D01*
X144077689Y-107883414D01*
X144275147Y-107975490D01*
X144285439Y-107979236D01*
X144495888Y-108035625D01*
X144506681Y-108037528D01*
X144723725Y-108056517D01*
X144734675Y-108056517D01*
X144951719Y-108037528D01*
X144962512Y-108035625D01*
X145172961Y-107979236D01*
X145183253Y-107975490D01*
X145380711Y-107883414D01*
X145390206Y-107877931D01*
X145442248Y-107841491D01*
X145450624Y-107831012D01*
X145443556Y-107817566D01*
X144742012Y-107116022D01*
X144728068Y-107108408D01*
X144726235Y-107108539D01*
X144719620Y-107112790D01*
X144014123Y-107818287D01*
X144007693Y-107830062D01*
X134627950Y-107830062D01*
X134776829Y-107595466D01*
X134776831Y-107595463D01*
X134778482Y-107592861D01*
X134964092Y-107225415D01*
X134965202Y-107222554D01*
X135111845Y-106844487D01*
X135111848Y-106844477D01*
X135112960Y-106841611D01*
X135138685Y-106749475D01*
X143416683Y-106749475D01*
X143435672Y-106966519D01*
X143437575Y-106977312D01*
X143493964Y-107187761D01*
X143497710Y-107198053D01*
X143589786Y-107395511D01*
X143595269Y-107405006D01*
X143631709Y-107457048D01*
X143642188Y-107465424D01*
X143655634Y-107458356D01*
X144357178Y-106756812D01*
X144363556Y-106745132D01*
X145093608Y-106745132D01*
X145093739Y-106746965D01*
X145097990Y-106753580D01*
X145803487Y-107459077D01*
X145815262Y-107465507D01*
X145827277Y-107456211D01*
X145863131Y-107405006D01*
X145868614Y-107395511D01*
X145960690Y-107198053D01*
X145964436Y-107187761D01*
X146020825Y-106977312D01*
X146022728Y-106966519D01*
X146041717Y-106749475D01*
X146041717Y-106738525D01*
X146022728Y-106521481D01*
X146020825Y-106510688D01*
X145964436Y-106300239D01*
X145960690Y-106289947D01*
X145868614Y-106092489D01*
X145863131Y-106082994D01*
X145826691Y-106030952D01*
X145816212Y-106022576D01*
X145802766Y-106029644D01*
X145101222Y-106731188D01*
X145093608Y-106745132D01*
X144363556Y-106745132D01*
X144364792Y-106742868D01*
X144364661Y-106741035D01*
X144360410Y-106734420D01*
X143654913Y-106028923D01*
X143643138Y-106022493D01*
X143631123Y-106031789D01*
X143595269Y-106082994D01*
X143589786Y-106092489D01*
X143497710Y-106289947D01*
X143493964Y-106300239D01*
X143437575Y-106510688D01*
X143435672Y-106521481D01*
X143416683Y-106738525D01*
X143416683Y-106749475D01*
X135138685Y-106749475D01*
X135223665Y-106445111D01*
X135295150Y-106039701D01*
X135320580Y-105709209D01*
X135326582Y-105631203D01*
X135326582Y-105631194D01*
X135326732Y-105629250D01*
X135328375Y-105511600D01*
X135327320Y-105490015D01*
X135315590Y-105250198D01*
X135308265Y-105100427D01*
X135248128Y-104693179D01*
X135148538Y-104293743D01*
X135130826Y-104244000D01*
X143415702Y-104244000D01*
X143435657Y-104472087D01*
X143437081Y-104477400D01*
X143437081Y-104477402D01*
X143479457Y-104635548D01*
X143494916Y-104693243D01*
X143497239Y-104698224D01*
X143497239Y-104698225D01*
X143589351Y-104895762D01*
X143589354Y-104895767D01*
X143591677Y-104900749D01*
X143723002Y-105088300D01*
X143884900Y-105250198D01*
X143889408Y-105253355D01*
X143889411Y-105253357D01*
X143935433Y-105285582D01*
X144072451Y-105381523D01*
X144077435Y-105383847D01*
X144079728Y-105385171D01*
X144128721Y-105436553D01*
X144142157Y-105506267D01*
X144115771Y-105572178D01*
X144079728Y-105603409D01*
X144068198Y-105610066D01*
X144016152Y-105646509D01*
X144007776Y-105656988D01*
X144014844Y-105670434D01*
X144716388Y-106371978D01*
X144730332Y-106379592D01*
X144732165Y-106379461D01*
X144738780Y-106375210D01*
X145444277Y-105669713D01*
X145450707Y-105657938D01*
X145441411Y-105645923D01*
X145390202Y-105610066D01*
X145378672Y-105603409D01*
X145329679Y-105552027D01*
X145316242Y-105482313D01*
X145342629Y-105416402D01*
X145378672Y-105385171D01*
X145380965Y-105383847D01*
X145385949Y-105381523D01*
X145522967Y-105285582D01*
X145568989Y-105253357D01*
X145568992Y-105253355D01*
X145573500Y-105250198D01*
X145735398Y-105088300D01*
X145866723Y-104900749D01*
X145869046Y-104895767D01*
X145869049Y-104895762D01*
X145961161Y-104698225D01*
X145961161Y-104698224D01*
X145963484Y-104693243D01*
X145978944Y-104635548D01*
X146021319Y-104477402D01*
X146021319Y-104477400D01*
X146022743Y-104472087D01*
X146042698Y-104244000D01*
X146022743Y-104015913D01*
X145992527Y-103903146D01*
X145964907Y-103800067D01*
X145964906Y-103800065D01*
X145963484Y-103794757D01*
X145956677Y-103780159D01*
X145869049Y-103592238D01*
X145869046Y-103592233D01*
X145866723Y-103587251D01*
X145735398Y-103399700D01*
X145573500Y-103237802D01*
X145568992Y-103234645D01*
X145568989Y-103234643D01*
X145481008Y-103173038D01*
X145385949Y-103106477D01*
X145380967Y-103104154D01*
X145380962Y-103104151D01*
X145183425Y-103012039D01*
X145183424Y-103012039D01*
X145178443Y-103009716D01*
X145173135Y-103008294D01*
X145173133Y-103008293D01*
X144962602Y-102951881D01*
X144962600Y-102951881D01*
X144957287Y-102950457D01*
X144729200Y-102930502D01*
X144501113Y-102950457D01*
X144495800Y-102951881D01*
X144495798Y-102951881D01*
X144285267Y-103008293D01*
X144285265Y-103008294D01*
X144279957Y-103009716D01*
X144274976Y-103012039D01*
X144274975Y-103012039D01*
X144077438Y-103104151D01*
X144077433Y-103104154D01*
X144072451Y-103106477D01*
X143977392Y-103173038D01*
X143889411Y-103234643D01*
X143889408Y-103234645D01*
X143884900Y-103237802D01*
X143723002Y-103399700D01*
X143591677Y-103587251D01*
X143589354Y-103592233D01*
X143589351Y-103592238D01*
X143501723Y-103780159D01*
X143494916Y-103794757D01*
X143493494Y-103800065D01*
X143493493Y-103800067D01*
X143465873Y-103903146D01*
X143435657Y-104015913D01*
X143415702Y-104244000D01*
X135130826Y-104244000D01*
X135127500Y-104234660D01*
X135011476Y-103908830D01*
X135010444Y-103905931D01*
X134835166Y-103533446D01*
X134805968Y-103484465D01*
X134704885Y-103314898D01*
X134624376Y-103179843D01*
X134380087Y-102848497D01*
X134378031Y-102846214D01*
X134378024Y-102846205D01*
X134106699Y-102544868D01*
X134106691Y-102544860D01*
X134104630Y-102542571D01*
X133800634Y-102264985D01*
X133471001Y-102018388D01*
X133405823Y-101978915D01*
X133121506Y-101806726D01*
X133121497Y-101806721D01*
X133118878Y-101805135D01*
X132747626Y-101627260D01*
X132744737Y-101626208D01*
X132744731Y-101626206D01*
X132363687Y-101487518D01*
X132363684Y-101487517D01*
X132360788Y-101486463D01*
X132024821Y-101400201D01*
X131965041Y-101384852D01*
X131965038Y-101384851D01*
X131962057Y-101384086D01*
X131555239Y-101321107D01*
X131144216Y-101298128D01*
X131141137Y-101298257D01*
X131141134Y-101298257D01*
X130871657Y-101309551D01*
X130732913Y-101315366D01*
X130729869Y-101315794D01*
X130729867Y-101315794D01*
X130556617Y-101340143D01*
X130325255Y-101372659D01*
X129925133Y-101469459D01*
X129536367Y-101604841D01*
X129533569Y-101606134D01*
X129165464Y-101776222D01*
X129165454Y-101776227D01*
X129162667Y-101777515D01*
X128807601Y-101985831D01*
X128760248Y-102020235D01*
X128477039Y-102225998D01*
X128477033Y-102226003D01*
X128474558Y-102227801D01*
X128472272Y-102229830D01*
X128472269Y-102229833D01*
X128434752Y-102263142D01*
X128166716Y-102501116D01*
X128164637Y-102503361D01*
X128164630Y-102503368D01*
X127908003Y-102780500D01*
X127887014Y-102803166D01*
X127638122Y-103131069D01*
X127626621Y-103149764D01*
X127472860Y-103399700D01*
X127422416Y-103481695D01*
X127241954Y-103851696D01*
X127240883Y-103854577D01*
X127240880Y-103854583D01*
X127178845Y-104021393D01*
X127098460Y-104237542D01*
X126993302Y-104635548D01*
X126927484Y-105041917D01*
X126927291Y-105044990D01*
X126927290Y-105044996D01*
X126903924Y-105416402D01*
X126901636Y-105452769D01*
X126901744Y-105455858D01*
X126911726Y-105741699D01*
X126916003Y-105864183D01*
X126916409Y-105867227D01*
X126916410Y-105867237D01*
X126930077Y-105969666D01*
X126970448Y-106272231D01*
X126971148Y-106275215D01*
X126971149Y-106275221D01*
X127063749Y-106670022D01*
X127064452Y-106673019D01*
X127197117Y-107062720D01*
X127367177Y-107437616D01*
X127573010Y-107794128D01*
X127574799Y-107796626D01*
X127574801Y-107796630D01*
X127775590Y-108077089D01*
X127812649Y-108128853D01*
X127814676Y-108131168D01*
X127814678Y-108131171D01*
X127929571Y-108262412D01*
X128083808Y-108438595D01*
X128383898Y-108720399D01*
X128710056Y-108971574D01*
X128712659Y-108973201D01*
X128712664Y-108973204D01*
X128832997Y-109048396D01*
X128947418Y-109119894D01*
X128971274Y-109134801D01*
X129018444Y-109187862D01*
X129029439Y-109258002D01*
X129000768Y-109322952D01*
X128941534Y-109362091D01*
X128903607Y-109367652D01*
X127116927Y-109354929D01*
X126480172Y-109350394D01*
X126412196Y-109329907D01*
X126391975Y-109313492D01*
X118687630Y-101609147D01*
X118680090Y-101600861D01*
X118675978Y-101594382D01*
X118626326Y-101547756D01*
X118623485Y-101545002D01*
X118603748Y-101525265D01*
X118600551Y-101522785D01*
X118591529Y-101515080D01*
X118565078Y-101490241D01*
X118559299Y-101484814D01*
X118552353Y-101480995D01*
X118552350Y-101480993D01*
X118541544Y-101475052D01*
X118525025Y-101464201D01*
X118524561Y-101463841D01*
X118509019Y-101451786D01*
X118501750Y-101448641D01*
X118501746Y-101448638D01*
X118468441Y-101434226D01*
X118457791Y-101429009D01*
X118419038Y-101407705D01*
X118399415Y-101402667D01*
X118380712Y-101396263D01*
X118369398Y-101391367D01*
X118369397Y-101391367D01*
X118362123Y-101388219D01*
X118354300Y-101386980D01*
X118354290Y-101386977D01*
X118318454Y-101381301D01*
X118306834Y-101378895D01*
X118271689Y-101369872D01*
X118271688Y-101369872D01*
X118264008Y-101367900D01*
X118243754Y-101367900D01*
X118224043Y-101366349D01*
X118211864Y-101364420D01*
X118204035Y-101363180D01*
X118196143Y-101363926D01*
X118160017Y-101367341D01*
X118148159Y-101367900D01*
X117706544Y-101367900D01*
X117638423Y-101347898D01*
X117603331Y-101314171D01*
X117496507Y-101161611D01*
X117496505Y-101161608D01*
X117493348Y-101157100D01*
X117331450Y-100995202D01*
X117326942Y-100992045D01*
X117326939Y-100992043D01*
X117232765Y-100926102D01*
X117143899Y-100863877D01*
X117138917Y-100861554D01*
X117138912Y-100861551D01*
X117104693Y-100845595D01*
X117051408Y-100798678D01*
X117031947Y-100730401D01*
X117052489Y-100662441D01*
X117104693Y-100617205D01*
X117138912Y-100601249D01*
X117138917Y-100601246D01*
X117143899Y-100598923D01*
X117259502Y-100517977D01*
X117326939Y-100470757D01*
X117326942Y-100470755D01*
X117331450Y-100467598D01*
X117493348Y-100305700D01*
X117624673Y-100118149D01*
X117626996Y-100113167D01*
X117626999Y-100113162D01*
X117719111Y-99915625D01*
X117719111Y-99915624D01*
X117721434Y-99910643D01*
X117741602Y-99835378D01*
X117779269Y-99694802D01*
X117779270Y-99694799D01*
X117780693Y-99689487D01*
X117800648Y-99461400D01*
X117780693Y-99233313D01*
X117721434Y-99012157D01*
X117712424Y-98992834D01*
X117626999Y-98809638D01*
X117626996Y-98809633D01*
X117624673Y-98804651D01*
X117551248Y-98699789D01*
X117496507Y-98621611D01*
X117496505Y-98621608D01*
X117493348Y-98617100D01*
X117331450Y-98455202D01*
X117326942Y-98452045D01*
X117326939Y-98452043D01*
X117174379Y-98345219D01*
X117130051Y-98289762D01*
X117120650Y-98242006D01*
X117120650Y-98140794D01*
X117140652Y-98072673D01*
X117174379Y-98037581D01*
X117326939Y-97930757D01*
X117326942Y-97930755D01*
X117331450Y-97927598D01*
X117493348Y-97765700D01*
X117624673Y-97578149D01*
X117626996Y-97573167D01*
X117626999Y-97573162D01*
X117719111Y-97375625D01*
X117719111Y-97375624D01*
X117721434Y-97370643D01*
X117744673Y-97283917D01*
X117779269Y-97154802D01*
X117779269Y-97154800D01*
X117780693Y-97149487D01*
X117800648Y-96921400D01*
X117780693Y-96693313D01*
X117775700Y-96674679D01*
X117722857Y-96477467D01*
X117722856Y-96477465D01*
X117721434Y-96472157D01*
X117632839Y-96282163D01*
X117626999Y-96269638D01*
X117626996Y-96269633D01*
X117624673Y-96264651D01*
X117493348Y-96077100D01*
X117331450Y-95915202D01*
X117326942Y-95912045D01*
X117326939Y-95912043D01*
X117205452Y-95826977D01*
X117143899Y-95783877D01*
X117138917Y-95781554D01*
X117138912Y-95781551D01*
X117104693Y-95765595D01*
X117051408Y-95718678D01*
X117031947Y-95650401D01*
X117052489Y-95582441D01*
X117104693Y-95537205D01*
X117138912Y-95521249D01*
X117138917Y-95521246D01*
X117143899Y-95518923D01*
X117248761Y-95445498D01*
X117326939Y-95390757D01*
X117326942Y-95390755D01*
X117331450Y-95387598D01*
X117493348Y-95225700D01*
X117624673Y-95038149D01*
X117626996Y-95033167D01*
X117626999Y-95033162D01*
X117719111Y-94835625D01*
X117719111Y-94835624D01*
X117721434Y-94830643D01*
X117724594Y-94818852D01*
X117779269Y-94614802D01*
X117779269Y-94614800D01*
X117780693Y-94609487D01*
X117800648Y-94381400D01*
X117780693Y-94153313D01*
X117777510Y-94141433D01*
X117722857Y-93937467D01*
X117722856Y-93937465D01*
X117721434Y-93932157D01*
X117715407Y-93919232D01*
X117626999Y-93729638D01*
X117626996Y-93729633D01*
X117624673Y-93724651D01*
X117493348Y-93537100D01*
X117331450Y-93375202D01*
X117326942Y-93372045D01*
X117326939Y-93372043D01*
X117183724Y-93271763D01*
X117143899Y-93243877D01*
X117138917Y-93241554D01*
X117138912Y-93241551D01*
X117104693Y-93225595D01*
X117051408Y-93178678D01*
X117031947Y-93110401D01*
X117052489Y-93042441D01*
X117104693Y-92997205D01*
X117138912Y-92981249D01*
X117138917Y-92981246D01*
X117143899Y-92978923D01*
X117248761Y-92905498D01*
X117326939Y-92850757D01*
X117326942Y-92850755D01*
X117331450Y-92847598D01*
X117493348Y-92685700D01*
X117499911Y-92676328D01*
X117571007Y-92574792D01*
X117624673Y-92498149D01*
X117626996Y-92493167D01*
X117626999Y-92493162D01*
X117719111Y-92295625D01*
X117719111Y-92295624D01*
X117721434Y-92290643D01*
X117780693Y-92069487D01*
X117800648Y-91841400D01*
X117780693Y-91613313D01*
X117721434Y-91392157D01*
X117719111Y-91387175D01*
X117626999Y-91189638D01*
X117626996Y-91189633D01*
X117624673Y-91184651D01*
X117493348Y-90997100D01*
X117331450Y-90835202D01*
X117326942Y-90832045D01*
X117326939Y-90832043D01*
X117248761Y-90777302D01*
X117143899Y-90703877D01*
X117138917Y-90701554D01*
X117138912Y-90701551D01*
X117104693Y-90685595D01*
X117051408Y-90638678D01*
X117031947Y-90570401D01*
X117052489Y-90502441D01*
X117104693Y-90457205D01*
X117138912Y-90441249D01*
X117138917Y-90441246D01*
X117143899Y-90438923D01*
X117265453Y-90353810D01*
X117326939Y-90310757D01*
X117326942Y-90310755D01*
X117331450Y-90307598D01*
X117493348Y-90145700D01*
X117524739Y-90100870D01*
X117563991Y-90044811D01*
X117624673Y-89958149D01*
X117626996Y-89953167D01*
X117626999Y-89953162D01*
X117719111Y-89755625D01*
X117719111Y-89755624D01*
X117721434Y-89750643D01*
X117744673Y-89663917D01*
X117779269Y-89534802D01*
X117779269Y-89534800D01*
X117780693Y-89529487D01*
X117800648Y-89301400D01*
X117780693Y-89073313D01*
X117721434Y-88852157D01*
X117719111Y-88847175D01*
X117626999Y-88649638D01*
X117626996Y-88649633D01*
X117624673Y-88644651D01*
X117493348Y-88457100D01*
X117331450Y-88295202D01*
X117326942Y-88292045D01*
X117326939Y-88292043D01*
X117240593Y-88231583D01*
X117143899Y-88163877D01*
X117138917Y-88161554D01*
X117138912Y-88161551D01*
X117104101Y-88145319D01*
X117050816Y-88098402D01*
X117031355Y-88030125D01*
X117051897Y-87962165D01*
X117104101Y-87916929D01*
X117138661Y-87900814D01*
X117148157Y-87895331D01*
X117326617Y-87770372D01*
X117335025Y-87763316D01*
X117489066Y-87609275D01*
X117496122Y-87600867D01*
X117621081Y-87422407D01*
X117626564Y-87412911D01*
X117718640Y-87215453D01*
X117722386Y-87205161D01*
X117768544Y-87032897D01*
X117768208Y-87018801D01*
X117760266Y-87015400D01*
X115219183Y-87015400D01*
X115205652Y-87019373D01*
X115204423Y-87027922D01*
X115251914Y-87205161D01*
X115255660Y-87215453D01*
X115347736Y-87412911D01*
X115353219Y-87422407D01*
X115478178Y-87600867D01*
X115485234Y-87609275D01*
X115639275Y-87763316D01*
X115647683Y-87770372D01*
X115826143Y-87895331D01*
X115835639Y-87900814D01*
X115870199Y-87916929D01*
X115923484Y-87963846D01*
X115942945Y-88032123D01*
X115922403Y-88100083D01*
X115870199Y-88145319D01*
X115835388Y-88161551D01*
X115835383Y-88161554D01*
X115830401Y-88163877D01*
X115733707Y-88231583D01*
X115647361Y-88292043D01*
X115647358Y-88292045D01*
X115642850Y-88295202D01*
X115480952Y-88457100D01*
X115349627Y-88644651D01*
X115347304Y-88649633D01*
X115347301Y-88649638D01*
X115255189Y-88847175D01*
X115252866Y-88852157D01*
X115193607Y-89073313D01*
X115173652Y-89301400D01*
X115193607Y-89529487D01*
X115195031Y-89534800D01*
X115195031Y-89534802D01*
X115229628Y-89663917D01*
X115252866Y-89750643D01*
X115255189Y-89755624D01*
X115255189Y-89755625D01*
X115347301Y-89953162D01*
X115347304Y-89953167D01*
X115349627Y-89958149D01*
X115410309Y-90044811D01*
X115449562Y-90100870D01*
X115480952Y-90145700D01*
X115642850Y-90307598D01*
X115647358Y-90310755D01*
X115647361Y-90310757D01*
X115708847Y-90353810D01*
X115830401Y-90438923D01*
X115835383Y-90441246D01*
X115835388Y-90441249D01*
X115869607Y-90457205D01*
X115922892Y-90504122D01*
X115942353Y-90572399D01*
X115921811Y-90640359D01*
X115869607Y-90685595D01*
X115835388Y-90701551D01*
X115835383Y-90701554D01*
X115830401Y-90703877D01*
X115725539Y-90777302D01*
X115647361Y-90832043D01*
X115647358Y-90832045D01*
X115642850Y-90835202D01*
X115480952Y-90997100D01*
X115349627Y-91184651D01*
X115347304Y-91189633D01*
X115347301Y-91189638D01*
X115255189Y-91387175D01*
X115252866Y-91392157D01*
X115193607Y-91613313D01*
X115173652Y-91841400D01*
X115193607Y-92069487D01*
X115252866Y-92290643D01*
X115255189Y-92295624D01*
X115255189Y-92295625D01*
X115347301Y-92493162D01*
X115347304Y-92493167D01*
X115349627Y-92498149D01*
X115403293Y-92574792D01*
X115474390Y-92676328D01*
X115480952Y-92685700D01*
X115642850Y-92847598D01*
X115647358Y-92850755D01*
X115647361Y-92850757D01*
X115725539Y-92905498D01*
X115830401Y-92978923D01*
X115835383Y-92981246D01*
X115835388Y-92981249D01*
X115869607Y-92997205D01*
X115922892Y-93044122D01*
X115942353Y-93112399D01*
X115921811Y-93180359D01*
X115869607Y-93225595D01*
X115835388Y-93241551D01*
X115835383Y-93241554D01*
X115830401Y-93243877D01*
X115790576Y-93271763D01*
X115647361Y-93372043D01*
X115647358Y-93372045D01*
X115642850Y-93375202D01*
X115480952Y-93537100D01*
X115349627Y-93724651D01*
X115347304Y-93729633D01*
X115347301Y-93729638D01*
X115258893Y-93919232D01*
X115252866Y-93932157D01*
X115251444Y-93937465D01*
X115251443Y-93937467D01*
X115196790Y-94141433D01*
X115193607Y-94153313D01*
X115173652Y-94381400D01*
X115193607Y-94609487D01*
X115195031Y-94614800D01*
X115195031Y-94614802D01*
X115249707Y-94818852D01*
X115252866Y-94830643D01*
X115255189Y-94835624D01*
X115255189Y-94835625D01*
X115347301Y-95033162D01*
X115347304Y-95033167D01*
X115349627Y-95038149D01*
X115480952Y-95225700D01*
X115642850Y-95387598D01*
X115647358Y-95390755D01*
X115647361Y-95390757D01*
X115725539Y-95445498D01*
X115830401Y-95518923D01*
X115835383Y-95521246D01*
X115835388Y-95521249D01*
X115869607Y-95537205D01*
X115922892Y-95584122D01*
X115942353Y-95652399D01*
X115921811Y-95720359D01*
X115869607Y-95765595D01*
X115835388Y-95781551D01*
X115835383Y-95781554D01*
X115830401Y-95783877D01*
X115768848Y-95826977D01*
X115647361Y-95912043D01*
X115647358Y-95912045D01*
X115642850Y-95915202D01*
X115480952Y-96077100D01*
X115349627Y-96264651D01*
X115347304Y-96269633D01*
X115347301Y-96269638D01*
X115341461Y-96282163D01*
X115252866Y-96472157D01*
X115251444Y-96477465D01*
X115251443Y-96477467D01*
X115198600Y-96674679D01*
X115193607Y-96693313D01*
X115173652Y-96921400D01*
X115193607Y-97149487D01*
X115195031Y-97154800D01*
X115195031Y-97154802D01*
X115229628Y-97283917D01*
X115252866Y-97370643D01*
X115255189Y-97375624D01*
X115255189Y-97375625D01*
X115347301Y-97573162D01*
X115347304Y-97573167D01*
X115349627Y-97578149D01*
X115480952Y-97765700D01*
X115642850Y-97927598D01*
X115647358Y-97930755D01*
X115647361Y-97930757D01*
X115799921Y-98037581D01*
X115844249Y-98093038D01*
X115853650Y-98140794D01*
X115853650Y-98242006D01*
X115833648Y-98310127D01*
X115799921Y-98345219D01*
X115647361Y-98452043D01*
X115647358Y-98452045D01*
X115642850Y-98455202D01*
X115480952Y-98617100D01*
X115477795Y-98621608D01*
X115477793Y-98621611D01*
X115370969Y-98774171D01*
X115315512Y-98818499D01*
X115267756Y-98827900D01*
X110086544Y-98827900D01*
X110018423Y-98807898D01*
X109983331Y-98774171D01*
X109876507Y-98621611D01*
X109876505Y-98621608D01*
X109873348Y-98617100D01*
X109711450Y-98455202D01*
X109706942Y-98452045D01*
X109706939Y-98452043D01*
X109554378Y-98345219D01*
X109523899Y-98323877D01*
X109518917Y-98321554D01*
X109518912Y-98321551D01*
X109484693Y-98305595D01*
X109431408Y-98258678D01*
X109411947Y-98190401D01*
X109432489Y-98122441D01*
X109484693Y-98077205D01*
X109518912Y-98061249D01*
X109518917Y-98061246D01*
X109523899Y-98058923D01*
X109628761Y-97985498D01*
X109706939Y-97930757D01*
X109706942Y-97930755D01*
X109711450Y-97927598D01*
X109873348Y-97765700D01*
X110004673Y-97578149D01*
X110006996Y-97573167D01*
X110006999Y-97573162D01*
X110099111Y-97375625D01*
X110099111Y-97375624D01*
X110101434Y-97370643D01*
X110124673Y-97283917D01*
X110159269Y-97154802D01*
X110159269Y-97154800D01*
X110160693Y-97149487D01*
X110180648Y-96921400D01*
X110160693Y-96693313D01*
X110155700Y-96674679D01*
X110102857Y-96477467D01*
X110102856Y-96477465D01*
X110101434Y-96472157D01*
X110012839Y-96282163D01*
X110006999Y-96269638D01*
X110006996Y-96269633D01*
X110004673Y-96264651D01*
X109873348Y-96077100D01*
X109711450Y-95915202D01*
X109706942Y-95912045D01*
X109706939Y-95912043D01*
X109585452Y-95826977D01*
X109523899Y-95783877D01*
X109518917Y-95781554D01*
X109518912Y-95781551D01*
X109484693Y-95765595D01*
X109431408Y-95718678D01*
X109411947Y-95650401D01*
X109432489Y-95582441D01*
X109484693Y-95537205D01*
X109518912Y-95521249D01*
X109518917Y-95521246D01*
X109523899Y-95518923D01*
X109628761Y-95445498D01*
X109706939Y-95390757D01*
X109706942Y-95390755D01*
X109711450Y-95387598D01*
X109873348Y-95225700D01*
X110004673Y-95038149D01*
X110006996Y-95033167D01*
X110006999Y-95033162D01*
X110099111Y-94835625D01*
X110099111Y-94835624D01*
X110101434Y-94830643D01*
X110104594Y-94818852D01*
X110159269Y-94614802D01*
X110159269Y-94614800D01*
X110160693Y-94609487D01*
X110180648Y-94381400D01*
X110160693Y-94153313D01*
X110157510Y-94141433D01*
X110102857Y-93937467D01*
X110102856Y-93937465D01*
X110101434Y-93932157D01*
X110095407Y-93919232D01*
X110006999Y-93729638D01*
X110006996Y-93729633D01*
X110004673Y-93724651D01*
X109873348Y-93537100D01*
X109711450Y-93375202D01*
X109706942Y-93372045D01*
X109706939Y-93372043D01*
X109554379Y-93265219D01*
X109510051Y-93209762D01*
X109500650Y-93162006D01*
X109500650Y-93060794D01*
X109520652Y-92992673D01*
X109554379Y-92957581D01*
X109706939Y-92850757D01*
X109706942Y-92850755D01*
X109711450Y-92847598D01*
X109873348Y-92685700D01*
X109879911Y-92676328D01*
X109951007Y-92574792D01*
X110004673Y-92498149D01*
X110006996Y-92493167D01*
X110006999Y-92493162D01*
X110099111Y-92295625D01*
X110099111Y-92295624D01*
X110101434Y-92290643D01*
X110160693Y-92069487D01*
X110180648Y-91841400D01*
X110160693Y-91613313D01*
X110101434Y-91392157D01*
X110099111Y-91387175D01*
X110006999Y-91189638D01*
X110006996Y-91189633D01*
X110004673Y-91184651D01*
X109873348Y-90997100D01*
X109711450Y-90835202D01*
X109706942Y-90832045D01*
X109706939Y-90832043D01*
X109628761Y-90777302D01*
X109523899Y-90703877D01*
X109518917Y-90701554D01*
X109518912Y-90701551D01*
X109484693Y-90685595D01*
X109431408Y-90638678D01*
X109411947Y-90570401D01*
X109432489Y-90502441D01*
X109484693Y-90457205D01*
X109518912Y-90441249D01*
X109518917Y-90441246D01*
X109523899Y-90438923D01*
X109645453Y-90353810D01*
X109706939Y-90310757D01*
X109706942Y-90310755D01*
X109711450Y-90307598D01*
X109873348Y-90145700D01*
X109904739Y-90100870D01*
X109943991Y-90044811D01*
X110004673Y-89958149D01*
X110006996Y-89953167D01*
X110006999Y-89953162D01*
X110099111Y-89755625D01*
X110099111Y-89755624D01*
X110101434Y-89750643D01*
X110124673Y-89663917D01*
X110159269Y-89534802D01*
X110159269Y-89534800D01*
X110160693Y-89529487D01*
X110180648Y-89301400D01*
X110160693Y-89073313D01*
X110101434Y-88852157D01*
X110099111Y-88847175D01*
X110006999Y-88649638D01*
X110006996Y-88649633D01*
X110004673Y-88644651D01*
X109873348Y-88457100D01*
X109711450Y-88295202D01*
X109706939Y-88292043D01*
X109702726Y-88288508D01*
X109703677Y-88287374D01*
X109663679Y-88237329D01*
X109656374Y-88166710D01*
X109688408Y-88103351D01*
X109749612Y-88067370D01*
X109766667Y-88064318D01*
X109777466Y-88063145D01*
X109913855Y-88012015D01*
X110030411Y-87924661D01*
X110117765Y-87808105D01*
X110168895Y-87671716D01*
X110175650Y-87609534D01*
X110175650Y-86489903D01*
X115205756Y-86489903D01*
X115206092Y-86503999D01*
X115214034Y-86507400D01*
X116215035Y-86507400D01*
X116230274Y-86502925D01*
X116231479Y-86501535D01*
X116233150Y-86493852D01*
X116233150Y-86489285D01*
X116741150Y-86489285D01*
X116745625Y-86504524D01*
X116747015Y-86505729D01*
X116754698Y-86507400D01*
X117755117Y-86507400D01*
X117768648Y-86503427D01*
X117769877Y-86494878D01*
X117722386Y-86317639D01*
X117718640Y-86307347D01*
X117626564Y-86109889D01*
X117621081Y-86100393D01*
X117496122Y-85921933D01*
X117489066Y-85913525D01*
X117335025Y-85759484D01*
X117326617Y-85752428D01*
X117148157Y-85627469D01*
X117138661Y-85621986D01*
X116941203Y-85529910D01*
X116930911Y-85526164D01*
X116758647Y-85480006D01*
X116744551Y-85480342D01*
X116741150Y-85488284D01*
X116741150Y-86489285D01*
X116233150Y-86489285D01*
X116233150Y-85493433D01*
X116229177Y-85479902D01*
X116220628Y-85478673D01*
X116043389Y-85526164D01*
X116033097Y-85529910D01*
X115835639Y-85621986D01*
X115826143Y-85627469D01*
X115647683Y-85752428D01*
X115639275Y-85759484D01*
X115485234Y-85913525D01*
X115478178Y-85921933D01*
X115353219Y-86100393D01*
X115347736Y-86109889D01*
X115255660Y-86307347D01*
X115251914Y-86317639D01*
X115205756Y-86489903D01*
X110175650Y-86489903D01*
X110175650Y-85913266D01*
X110168895Y-85851084D01*
X110117765Y-85714695D01*
X110030411Y-85598139D01*
X109913855Y-85510785D01*
X109777466Y-85459655D01*
X109715284Y-85452900D01*
X108019016Y-85452900D01*
X107956834Y-85459655D01*
X107820445Y-85510785D01*
X107703889Y-85598139D01*
X107616535Y-85714695D01*
X107565405Y-85851084D01*
X107558650Y-85913266D01*
X107558650Y-87609534D01*
X107565405Y-87671716D01*
X107616535Y-87808105D01*
X107703889Y-87924661D01*
X107820445Y-88012015D01*
X107956834Y-88063145D01*
X107967624Y-88064317D01*
X107969756Y-88065203D01*
X107972372Y-88065825D01*
X107972271Y-88066248D01*
X108033185Y-88091555D01*
X108073613Y-88149917D01*
X108076072Y-88220871D01*
X108039779Y-88281890D01*
X108031119Y-88288889D01*
X108027357Y-88292046D01*
X108022850Y-88295202D01*
X107860952Y-88457100D01*
X107729627Y-88644651D01*
X107727304Y-88649633D01*
X107727301Y-88649638D01*
X107635189Y-88847175D01*
X107632866Y-88852157D01*
X107573607Y-89073313D01*
X107553652Y-89301400D01*
X107573607Y-89529487D01*
X107575030Y-89534798D01*
X107575032Y-89534809D01*
X107590609Y-89592941D01*
X107588920Y-89663917D01*
X107557998Y-89714648D01*
X104801250Y-92471395D01*
X104738938Y-92505421D01*
X104712155Y-92508300D01*
X103857720Y-92508300D01*
X103789599Y-92488298D01*
X103743106Y-92434642D01*
X103733002Y-92364368D01*
X103743525Y-92329051D01*
X103759109Y-92295630D01*
X103759111Y-92295625D01*
X103761434Y-92290643D01*
X103820693Y-92069487D01*
X103840648Y-91841400D01*
X103820693Y-91613313D01*
X103761434Y-91392157D01*
X103759111Y-91387175D01*
X103666999Y-91189638D01*
X103666996Y-91189633D01*
X103664673Y-91184651D01*
X103533348Y-90997100D01*
X103371450Y-90835202D01*
X103366942Y-90832045D01*
X103366939Y-90832043D01*
X103288761Y-90777302D01*
X103183899Y-90703877D01*
X103178917Y-90701554D01*
X103178912Y-90701551D01*
X103144693Y-90685595D01*
X103091408Y-90638678D01*
X103071947Y-90570401D01*
X103092489Y-90502441D01*
X103144693Y-90457205D01*
X103178912Y-90441249D01*
X103178917Y-90441246D01*
X103183899Y-90438923D01*
X103305453Y-90353810D01*
X103366939Y-90310757D01*
X103366942Y-90310755D01*
X103371450Y-90307598D01*
X103533348Y-90145700D01*
X103564739Y-90100870D01*
X103603991Y-90044811D01*
X103664673Y-89958149D01*
X103666996Y-89953167D01*
X103666999Y-89953162D01*
X103759111Y-89755625D01*
X103759111Y-89755624D01*
X103761434Y-89750643D01*
X103784673Y-89663917D01*
X103819269Y-89534802D01*
X103819269Y-89534800D01*
X103820693Y-89529487D01*
X103840648Y-89301400D01*
X103820693Y-89073313D01*
X103761434Y-88852157D01*
X103759111Y-88847175D01*
X103666999Y-88649638D01*
X103666996Y-88649633D01*
X103664673Y-88644651D01*
X103533348Y-88457100D01*
X103371450Y-88295202D01*
X103366942Y-88292045D01*
X103366939Y-88292043D01*
X103280593Y-88231583D01*
X103183899Y-88163877D01*
X103178917Y-88161554D01*
X103178912Y-88161551D01*
X103144101Y-88145319D01*
X103090816Y-88098402D01*
X103071355Y-88030125D01*
X103091897Y-87962165D01*
X103144101Y-87916929D01*
X103178661Y-87900814D01*
X103188157Y-87895331D01*
X103366617Y-87770372D01*
X103375025Y-87763316D01*
X103529066Y-87609275D01*
X103536122Y-87600867D01*
X103661081Y-87422407D01*
X103666564Y-87412911D01*
X103758640Y-87215453D01*
X103762386Y-87205161D01*
X103808544Y-87032897D01*
X103808208Y-87018801D01*
X103800266Y-87015400D01*
X101259183Y-87015400D01*
X101245652Y-87019373D01*
X101244423Y-87027922D01*
X101291914Y-87205161D01*
X101295660Y-87215453D01*
X101387736Y-87412911D01*
X101393219Y-87422407D01*
X101518178Y-87600867D01*
X101525234Y-87609275D01*
X101679275Y-87763316D01*
X101687683Y-87770372D01*
X101866143Y-87895331D01*
X101875639Y-87900814D01*
X101910199Y-87916929D01*
X101963484Y-87963846D01*
X101982945Y-88032123D01*
X101962403Y-88100083D01*
X101910199Y-88145319D01*
X101875388Y-88161551D01*
X101875383Y-88161554D01*
X101870401Y-88163877D01*
X101773707Y-88231583D01*
X101687361Y-88292043D01*
X101687358Y-88292045D01*
X101682850Y-88295202D01*
X101520952Y-88457100D01*
X101389627Y-88644651D01*
X101387304Y-88649633D01*
X101387301Y-88649638D01*
X101295189Y-88847175D01*
X101292866Y-88852157D01*
X101233607Y-89073313D01*
X101213652Y-89301400D01*
X101233607Y-89529487D01*
X101235031Y-89534800D01*
X101235031Y-89534802D01*
X101269628Y-89663917D01*
X101292866Y-89750643D01*
X101295189Y-89755624D01*
X101295189Y-89755625D01*
X101387301Y-89953162D01*
X101387304Y-89953167D01*
X101389627Y-89958149D01*
X101450309Y-90044811D01*
X101489562Y-90100870D01*
X101520952Y-90145700D01*
X101682850Y-90307598D01*
X101687358Y-90310755D01*
X101687361Y-90310757D01*
X101748847Y-90353810D01*
X101870401Y-90438923D01*
X101875383Y-90441246D01*
X101875388Y-90441249D01*
X101909607Y-90457205D01*
X101962892Y-90504122D01*
X101982353Y-90572399D01*
X101961811Y-90640359D01*
X101909607Y-90685595D01*
X101875388Y-90701551D01*
X101875383Y-90701554D01*
X101870401Y-90703877D01*
X101765539Y-90777302D01*
X101687361Y-90832043D01*
X101687358Y-90832045D01*
X101682850Y-90835202D01*
X101520952Y-90997100D01*
X101389627Y-91184651D01*
X101387304Y-91189633D01*
X101387301Y-91189638D01*
X101295189Y-91387175D01*
X101292866Y-91392157D01*
X101233607Y-91613313D01*
X101213652Y-91841400D01*
X101233607Y-92069487D01*
X101292866Y-92290643D01*
X101295189Y-92295625D01*
X101295191Y-92295630D01*
X101310775Y-92329051D01*
X101321436Y-92399243D01*
X101292455Y-92464055D01*
X101233035Y-92502911D01*
X101196580Y-92508300D01*
X98765518Y-92508300D01*
X98754335Y-92507773D01*
X98746842Y-92506098D01*
X98738916Y-92506347D01*
X98738915Y-92506347D01*
X98678752Y-92508238D01*
X98674794Y-92508300D01*
X98646894Y-92508300D01*
X98642904Y-92508804D01*
X98631070Y-92509736D01*
X98586861Y-92511126D01*
X98579245Y-92513339D01*
X98579243Y-92513339D01*
X98567402Y-92516779D01*
X98548043Y-92520788D01*
X98546733Y-92520954D01*
X98527953Y-92523326D01*
X98520587Y-92526242D01*
X98520581Y-92526244D01*
X98486848Y-92539600D01*
X98475618Y-92543445D01*
X98440767Y-92553570D01*
X98433157Y-92555781D01*
X98426334Y-92559816D01*
X98415716Y-92566095D01*
X98397963Y-92574792D01*
X98390318Y-92577819D01*
X98379133Y-92582248D01*
X98372718Y-92586909D01*
X98343362Y-92608237D01*
X98333445Y-92614751D01*
X98295388Y-92637258D01*
X98281067Y-92651579D01*
X98266034Y-92664419D01*
X98249643Y-92676328D01*
X98244592Y-92682434D01*
X98221452Y-92710405D01*
X98213462Y-92719184D01*
X96433739Y-94498906D01*
X96371427Y-94532932D01*
X96300611Y-94527867D01*
X96243776Y-94485320D01*
X96218965Y-94418800D01*
X96219124Y-94398828D01*
X96220169Y-94386885D01*
X96220169Y-94386875D01*
X96220648Y-94381400D01*
X96200693Y-94153313D01*
X96197510Y-94141433D01*
X96142857Y-93937467D01*
X96142856Y-93937465D01*
X96141434Y-93932157D01*
X96135407Y-93919232D01*
X96046999Y-93729638D01*
X96046996Y-93729633D01*
X96044673Y-93724651D01*
X95913348Y-93537100D01*
X95751450Y-93375202D01*
X95746942Y-93372045D01*
X95746939Y-93372043D01*
X95594379Y-93265219D01*
X95550051Y-93209762D01*
X95540650Y-93162006D01*
X95540650Y-93060794D01*
X95560652Y-92992673D01*
X95594379Y-92957581D01*
X95746939Y-92850757D01*
X95746942Y-92850755D01*
X95751450Y-92847598D01*
X95913348Y-92685700D01*
X95919911Y-92676328D01*
X95991007Y-92574792D01*
X96044673Y-92498149D01*
X96046996Y-92493167D01*
X96046999Y-92493162D01*
X96139111Y-92295625D01*
X96139111Y-92295624D01*
X96141434Y-92290643D01*
X96200693Y-92069487D01*
X96220648Y-91841400D01*
X96200693Y-91613313D01*
X96141434Y-91392157D01*
X96139111Y-91387175D01*
X96046999Y-91189638D01*
X96046996Y-91189633D01*
X96044673Y-91184651D01*
X95913348Y-90997100D01*
X95751450Y-90835202D01*
X95746942Y-90832045D01*
X95746939Y-90832043D01*
X95668761Y-90777302D01*
X95563899Y-90703877D01*
X95558917Y-90701554D01*
X95558912Y-90701551D01*
X95524693Y-90685595D01*
X95471408Y-90638678D01*
X95451947Y-90570401D01*
X95472489Y-90502441D01*
X95524693Y-90457205D01*
X95558912Y-90441249D01*
X95558917Y-90441246D01*
X95563899Y-90438923D01*
X95685453Y-90353810D01*
X95746939Y-90310757D01*
X95746942Y-90310755D01*
X95751450Y-90307598D01*
X95913348Y-90145700D01*
X95944739Y-90100870D01*
X95983991Y-90044811D01*
X96044673Y-89958149D01*
X96046996Y-89953167D01*
X96046999Y-89953162D01*
X96139111Y-89755625D01*
X96139111Y-89755624D01*
X96141434Y-89750643D01*
X96164673Y-89663917D01*
X96199269Y-89534802D01*
X96199269Y-89534800D01*
X96200693Y-89529487D01*
X96220648Y-89301400D01*
X96200693Y-89073313D01*
X96141434Y-88852157D01*
X96139111Y-88847175D01*
X96046999Y-88649638D01*
X96046996Y-88649633D01*
X96044673Y-88644651D01*
X95913348Y-88457100D01*
X95751450Y-88295202D01*
X95746939Y-88292043D01*
X95742726Y-88288508D01*
X95743677Y-88287374D01*
X95703679Y-88237329D01*
X95696374Y-88166710D01*
X95728408Y-88103351D01*
X95789612Y-88067370D01*
X95806667Y-88064318D01*
X95817466Y-88063145D01*
X95953855Y-88012015D01*
X96070411Y-87924661D01*
X96157765Y-87808105D01*
X96208895Y-87671716D01*
X96215650Y-87609534D01*
X96215650Y-86489903D01*
X101245756Y-86489903D01*
X101246092Y-86503999D01*
X101254034Y-86507400D01*
X102255035Y-86507400D01*
X102270274Y-86502925D01*
X102271479Y-86501535D01*
X102273150Y-86493852D01*
X102273150Y-86489285D01*
X102781150Y-86489285D01*
X102785625Y-86504524D01*
X102787015Y-86505729D01*
X102794698Y-86507400D01*
X103795117Y-86507400D01*
X103808648Y-86503427D01*
X103809877Y-86494878D01*
X103762386Y-86317639D01*
X103758640Y-86307347D01*
X103666564Y-86109889D01*
X103661081Y-86100393D01*
X103536122Y-85921933D01*
X103529066Y-85913525D01*
X103375025Y-85759484D01*
X103366617Y-85752428D01*
X103188157Y-85627469D01*
X103178661Y-85621986D01*
X102981203Y-85529910D01*
X102970911Y-85526164D01*
X102798647Y-85480006D01*
X102784551Y-85480342D01*
X102781150Y-85488284D01*
X102781150Y-86489285D01*
X102273150Y-86489285D01*
X102273150Y-85493433D01*
X102269177Y-85479902D01*
X102260628Y-85478673D01*
X102083389Y-85526164D01*
X102073097Y-85529910D01*
X101875639Y-85621986D01*
X101866143Y-85627469D01*
X101687683Y-85752428D01*
X101679275Y-85759484D01*
X101525234Y-85913525D01*
X101518178Y-85921933D01*
X101393219Y-86100393D01*
X101387736Y-86109889D01*
X101295660Y-86307347D01*
X101291914Y-86317639D01*
X101245756Y-86489903D01*
X96215650Y-86489903D01*
X96215650Y-85913266D01*
X96208895Y-85851084D01*
X96157765Y-85714695D01*
X96070411Y-85598139D01*
X95953855Y-85510785D01*
X95817466Y-85459655D01*
X95755284Y-85452900D01*
X94059016Y-85452900D01*
X93996834Y-85459655D01*
X93860445Y-85510785D01*
X93743889Y-85598139D01*
X93656535Y-85714695D01*
X93605405Y-85851084D01*
X93598650Y-85913266D01*
X93598650Y-87609534D01*
X93605405Y-87671716D01*
X93656535Y-87808105D01*
X93743889Y-87924661D01*
X93860445Y-88012015D01*
X93996834Y-88063145D01*
X94007624Y-88064317D01*
X94009756Y-88065203D01*
X94012372Y-88065825D01*
X94012271Y-88066248D01*
X94073185Y-88091555D01*
X94113613Y-88149917D01*
X94116072Y-88220871D01*
X94079779Y-88281890D01*
X94071119Y-88288889D01*
X94067357Y-88292046D01*
X94062850Y-88295202D01*
X93900952Y-88457100D01*
X93769627Y-88644651D01*
X93767304Y-88649633D01*
X93767301Y-88649638D01*
X93675189Y-88847175D01*
X93672866Y-88852157D01*
X93613607Y-89073313D01*
X93593652Y-89301400D01*
X93613607Y-89529487D01*
X93615029Y-89534792D01*
X93615031Y-89534806D01*
X93630609Y-89592939D01*
X93628921Y-89663916D01*
X93597998Y-89714648D01*
X93390381Y-89922264D01*
X93382102Y-89929798D01*
X93375621Y-89933911D01*
X93348627Y-89962657D01*
X93328996Y-89983562D01*
X93326241Y-89986404D01*
X93306504Y-90006141D01*
X93304024Y-90009338D01*
X93296321Y-90018358D01*
X93266053Y-90050590D01*
X93262234Y-90057536D01*
X93262232Y-90057539D01*
X93256291Y-90068345D01*
X93245440Y-90084864D01*
X93233025Y-90100870D01*
X93229880Y-90108139D01*
X93229877Y-90108143D01*
X93215465Y-90141448D01*
X93210248Y-90152098D01*
X93188944Y-90190851D01*
X93186973Y-90198526D01*
X93186973Y-90198527D01*
X93183906Y-90210473D01*
X93177502Y-90229177D01*
X93169458Y-90247766D01*
X93168219Y-90255589D01*
X93168216Y-90255599D01*
X93162540Y-90291435D01*
X93160134Y-90303055D01*
X93158968Y-90307598D01*
X93149139Y-90345881D01*
X93149139Y-90366135D01*
X93147588Y-90385845D01*
X93144419Y-90405854D01*
X93145165Y-90413746D01*
X93148580Y-90449872D01*
X93149139Y-90461730D01*
X93149139Y-99848422D01*
X93148612Y-99859605D01*
X93146937Y-99867098D01*
X93147186Y-99875024D01*
X93147186Y-99875025D01*
X93149077Y-99935175D01*
X93149139Y-99939134D01*
X93149139Y-99967045D01*
X93149636Y-99970979D01*
X93149636Y-99970980D01*
X93149644Y-99971045D01*
X93150577Y-99982882D01*
X93151966Y-100027078D01*
X93157617Y-100046528D01*
X93161626Y-100065889D01*
X93164165Y-100085986D01*
X93167084Y-100093357D01*
X93167084Y-100093359D01*
X93180443Y-100127101D01*
X93184288Y-100138331D01*
X93196621Y-100180782D01*
X93200654Y-100187601D01*
X93200656Y-100187606D01*
X93206932Y-100198217D01*
X93215627Y-100215965D01*
X93223087Y-100234806D01*
X93227749Y-100241222D01*
X93227749Y-100241223D01*
X93249075Y-100270576D01*
X93255591Y-100280496D01*
X93272802Y-100309597D01*
X93278097Y-100318551D01*
X93292418Y-100332872D01*
X93305258Y-100347905D01*
X93317167Y-100364296D01*
X93349052Y-100390673D01*
X93351232Y-100392477D01*
X93360013Y-100400467D01*
X93919704Y-100960159D01*
X93953729Y-101022471D01*
X93948664Y-101093287D01*
X93919703Y-101138349D01*
X93900952Y-101157100D01*
X93897795Y-101161608D01*
X93897793Y-101161611D01*
X93863556Y-101210507D01*
X93769627Y-101344651D01*
X93767304Y-101349633D01*
X93767301Y-101349638D01*
X93686559Y-101522792D01*
X93672866Y-101552157D01*
X93613607Y-101773313D01*
X93593652Y-102001400D01*
X93613607Y-102229487D01*
X93672866Y-102450643D01*
X93675189Y-102455624D01*
X93675189Y-102455625D01*
X93767301Y-102653162D01*
X93767304Y-102653167D01*
X93769627Y-102658149D01*
X93806793Y-102711227D01*
X93897059Y-102840140D01*
X93900952Y-102845700D01*
X94062850Y-103007598D01*
X94067358Y-103010755D01*
X94067361Y-103010757D01*
X94069192Y-103012039D01*
X94250401Y-103138923D01*
X94255383Y-103141246D01*
X94255388Y-103141249D01*
X94425975Y-103220794D01*
X94457907Y-103235684D01*
X94463215Y-103237106D01*
X94463217Y-103237107D01*
X94673748Y-103293519D01*
X94673750Y-103293519D01*
X94679063Y-103294943D01*
X94907150Y-103314898D01*
X95135237Y-103294943D01*
X95140550Y-103293519D01*
X95140552Y-103293519D01*
X95351083Y-103237107D01*
X95351085Y-103237106D01*
X95356393Y-103235684D01*
X95388325Y-103220794D01*
X95558912Y-103141249D01*
X95558917Y-103141246D01*
X95563899Y-103138923D01*
X95745108Y-103012039D01*
X95746939Y-103010757D01*
X95746942Y-103010755D01*
X95751450Y-103007598D01*
X95913348Y-102845700D01*
X95917242Y-102840140D01*
X96007507Y-102711227D01*
X96044673Y-102658149D01*
X96046996Y-102653167D01*
X96046999Y-102653162D01*
X96139111Y-102455625D01*
X96139111Y-102455624D01*
X96141434Y-102450643D01*
X96200693Y-102229487D01*
X96220648Y-102001400D01*
X96200693Y-101773313D01*
X96141434Y-101552157D01*
X96092655Y-101447549D01*
X96081994Y-101377358D01*
X96110974Y-101312546D01*
X96170394Y-101273689D01*
X96206850Y-101268300D01*
X101227450Y-101268300D01*
X101295571Y-101288302D01*
X101342064Y-101341958D01*
X101352168Y-101412232D01*
X101341645Y-101447548D01*
X101292866Y-101552157D01*
X101233607Y-101773313D01*
X101213652Y-102001400D01*
X101233607Y-102229487D01*
X101292866Y-102450643D01*
X101295189Y-102455624D01*
X101295189Y-102455625D01*
X101387301Y-102653162D01*
X101387304Y-102653167D01*
X101389627Y-102658149D01*
X101426793Y-102711227D01*
X101517059Y-102840140D01*
X101520952Y-102845700D01*
X101682850Y-103007598D01*
X101687358Y-103010755D01*
X101687361Y-103010757D01*
X101839921Y-103117581D01*
X101884249Y-103173038D01*
X101893650Y-103220794D01*
X101893650Y-109048396D01*
X101873648Y-109116517D01*
X101819992Y-109163010D01*
X101766753Y-109174393D01*
X93330818Y-109114315D01*
X68921097Y-108940478D01*
X68853122Y-108919991D01*
X68807013Y-108866006D01*
X68797409Y-108795662D01*
X68827362Y-108731293D01*
X68839665Y-108719100D01*
X69018226Y-108564970D01*
X69020564Y-108562952D01*
X69022685Y-108560725D01*
X69022691Y-108560719D01*
X69302338Y-108267060D01*
X69304455Y-108264837D01*
X69349643Y-108207000D01*
X69555991Y-107942886D01*
X69555993Y-107942883D01*
X69557901Y-107940441D01*
X69559557Y-107937831D01*
X69559563Y-107937823D01*
X69776829Y-107595466D01*
X69776831Y-107595463D01*
X69778482Y-107592861D01*
X69964092Y-107225415D01*
X69965202Y-107222554D01*
X70111845Y-106844487D01*
X70111848Y-106844477D01*
X70112960Y-106841611D01*
X70223665Y-106445111D01*
X70295150Y-106039701D01*
X70320580Y-105709209D01*
X70326582Y-105631203D01*
X70326582Y-105631194D01*
X70326732Y-105629250D01*
X70328375Y-105511600D01*
X70327320Y-105490015D01*
X70315590Y-105250198D01*
X70308265Y-105100427D01*
X70248128Y-104693179D01*
X70148538Y-104293743D01*
X70127500Y-104234660D01*
X70011476Y-103908830D01*
X70010444Y-103905931D01*
X69835166Y-103533446D01*
X69805968Y-103484465D01*
X69704885Y-103314898D01*
X69624376Y-103179843D01*
X69380087Y-102848497D01*
X69378031Y-102846214D01*
X69378024Y-102846205D01*
X69106699Y-102544868D01*
X69106691Y-102544860D01*
X69104630Y-102542571D01*
X68800634Y-102264985D01*
X68471001Y-102018388D01*
X68405823Y-101978915D01*
X68121506Y-101806726D01*
X68121497Y-101806721D01*
X68118878Y-101805135D01*
X68102012Y-101797054D01*
X77693418Y-101797054D01*
X77700473Y-101807027D01*
X77731479Y-101832951D01*
X77738398Y-101837979D01*
X77963072Y-101978915D01*
X77970607Y-101982956D01*
X78212320Y-102092094D01*
X78220351Y-102095080D01*
X78474632Y-102170402D01*
X78482984Y-102172269D01*
X78745140Y-102212384D01*
X78753674Y-102213100D01*
X79018845Y-102217267D01*
X79027396Y-102216818D01*
X79290683Y-102184957D01*
X79299084Y-102183355D01*
X79555624Y-102116053D01*
X79563726Y-102113326D01*
X79808749Y-102011834D01*
X79816417Y-102008028D01*
X80045398Y-101874222D01*
X80052479Y-101869409D01*
X80132455Y-101806701D01*
X80140925Y-101794842D01*
X80134408Y-101783218D01*
X78930612Y-100579422D01*
X78916668Y-100571808D01*
X78914835Y-100571939D01*
X78908220Y-100576190D01*
X77700710Y-101783700D01*
X77693418Y-101797054D01*
X68102012Y-101797054D01*
X67747626Y-101627260D01*
X67744737Y-101626208D01*
X67744731Y-101626206D01*
X67363687Y-101487518D01*
X67363684Y-101487517D01*
X67360788Y-101486463D01*
X67024821Y-101400201D01*
X66965041Y-101384852D01*
X66965038Y-101384851D01*
X66962057Y-101384086D01*
X66555239Y-101321107D01*
X66144216Y-101298128D01*
X66141137Y-101298257D01*
X66141134Y-101298257D01*
X65871657Y-101309551D01*
X65732913Y-101315366D01*
X65729869Y-101315794D01*
X65729867Y-101315794D01*
X65556617Y-101340143D01*
X65325255Y-101372659D01*
X64925133Y-101469459D01*
X64536367Y-101604841D01*
X64533569Y-101606134D01*
X64165464Y-101776222D01*
X64165454Y-101776227D01*
X64162667Y-101777515D01*
X63807601Y-101985831D01*
X63760248Y-102020235D01*
X63477039Y-102225998D01*
X63477033Y-102226003D01*
X63474558Y-102227801D01*
X63472272Y-102229830D01*
X63472269Y-102229833D01*
X63434752Y-102263142D01*
X63166716Y-102501116D01*
X63164637Y-102503361D01*
X63164630Y-102503368D01*
X62908003Y-102780500D01*
X62887014Y-102803166D01*
X62638122Y-103131069D01*
X62626621Y-103149764D01*
X62472860Y-103399700D01*
X62422416Y-103481695D01*
X62241954Y-103851696D01*
X62240883Y-103854577D01*
X62240880Y-103854583D01*
X62178845Y-104021393D01*
X62098460Y-104237542D01*
X61993302Y-104635548D01*
X61927484Y-105041917D01*
X61927291Y-105044990D01*
X61927290Y-105044996D01*
X61903924Y-105416402D01*
X61901636Y-105452769D01*
X61901744Y-105455858D01*
X61911726Y-105741699D01*
X61916003Y-105864183D01*
X61916409Y-105867227D01*
X61916410Y-105867237D01*
X61930077Y-105969666D01*
X61970448Y-106272231D01*
X61971148Y-106275215D01*
X61971149Y-106275221D01*
X62063749Y-106670022D01*
X62064452Y-106673019D01*
X62197117Y-107062720D01*
X62367177Y-107437616D01*
X62573010Y-107794128D01*
X62574799Y-107796626D01*
X62574801Y-107796630D01*
X62775590Y-108077089D01*
X62812649Y-108128853D01*
X62814676Y-108131168D01*
X62814678Y-108131171D01*
X62929571Y-108262412D01*
X63083808Y-108438595D01*
X63086056Y-108440706D01*
X63343313Y-108682287D01*
X63379279Y-108743500D01*
X63376440Y-108814440D01*
X63335700Y-108872584D01*
X63269992Y-108899472D01*
X63256167Y-108900134D01*
X30744502Y-108668597D01*
X30676526Y-108648110D01*
X30630417Y-108594125D01*
X30619400Y-108542600D01*
X30619400Y-100190604D01*
X76905465Y-100190604D01*
X76920732Y-100455369D01*
X76921805Y-100463870D01*
X76972865Y-100724122D01*
X76975076Y-100732374D01*
X77060984Y-100983294D01*
X77064299Y-100991179D01*
X77183464Y-101228113D01*
X77187820Y-101235479D01*
X77317147Y-101423650D01*
X77327401Y-101431994D01*
X77341142Y-101424848D01*
X78545778Y-100220212D01*
X78552156Y-100208532D01*
X79282208Y-100208532D01*
X79282339Y-100210365D01*
X79286590Y-100216980D01*
X80493530Y-101423920D01*
X80505739Y-101430587D01*
X80517239Y-101421897D01*
X80614631Y-101289313D01*
X80619218Y-101282085D01*
X80745762Y-101049021D01*
X80749330Y-101041227D01*
X80843071Y-100793150D01*
X80845548Y-100784944D01*
X80904754Y-100526438D01*
X80906094Y-100517977D01*
X80929831Y-100252016D01*
X80930077Y-100247077D01*
X80930466Y-100209885D01*
X80930323Y-100204919D01*
X80912162Y-99938523D01*
X80911001Y-99930049D01*
X80857219Y-99670344D01*
X80854920Y-99662109D01*
X80766388Y-99412105D01*
X80762991Y-99404254D01*
X80641350Y-99168578D01*
X80636922Y-99161266D01*
X80517831Y-98991817D01*
X80507309Y-98983437D01*
X80493921Y-98990489D01*
X79289822Y-100194588D01*
X79282208Y-100208532D01*
X78552156Y-100208532D01*
X78553392Y-100206268D01*
X78553261Y-100204435D01*
X78549010Y-100197820D01*
X77341614Y-98990424D01*
X77329604Y-98983866D01*
X77317864Y-98992834D01*
X77209735Y-99143311D01*
X77205218Y-99150596D01*
X77081125Y-99384967D01*
X77077639Y-99392795D01*
X76986500Y-99641846D01*
X76984111Y-99650070D01*
X76927612Y-99909195D01*
X76926363Y-99917650D01*
X76905554Y-100182053D01*
X76905465Y-100190604D01*
X30619400Y-100190604D01*
X30619400Y-98619900D01*
X77694384Y-98619900D01*
X77700780Y-98631170D01*
X78904988Y-99835378D01*
X78918932Y-99842992D01*
X78920765Y-99842861D01*
X78927380Y-99838610D01*
X80134404Y-98631586D01*
X80141595Y-98618417D01*
X80134273Y-98608180D01*
X80087033Y-98569515D01*
X80080061Y-98564560D01*
X79853922Y-98425982D01*
X79846352Y-98422024D01*
X79603504Y-98315422D01*
X79595444Y-98312520D01*
X79340392Y-98239867D01*
X79332014Y-98238085D01*
X79069456Y-98200718D01*
X79060911Y-98200091D01*
X78795708Y-98198702D01*
X78787174Y-98199239D01*
X78524233Y-98233856D01*
X78515835Y-98235549D01*
X78260038Y-98305527D01*
X78251943Y-98308346D01*
X78007999Y-98412397D01*
X78000377Y-98416281D01*
X77772813Y-98552475D01*
X77765781Y-98557362D01*
X77702853Y-98607777D01*
X77694384Y-98619900D01*
X30619400Y-98619900D01*
X30619400Y-80700800D01*
X96143652Y-80700800D01*
X96163607Y-80928887D01*
X96165031Y-80934200D01*
X96165031Y-80934202D01*
X96202175Y-81072822D01*
X96222866Y-81150043D01*
X96225189Y-81155024D01*
X96225189Y-81155025D01*
X96317301Y-81352562D01*
X96317304Y-81352567D01*
X96319627Y-81357549D01*
X96450952Y-81545100D01*
X96612850Y-81706998D01*
X96617358Y-81710155D01*
X96617361Y-81710157D01*
X96695539Y-81764898D01*
X96800401Y-81838323D01*
X96805383Y-81840646D01*
X96805388Y-81840649D01*
X97001915Y-81932290D01*
X97007907Y-81935084D01*
X97013215Y-81936506D01*
X97013217Y-81936507D01*
X97223748Y-81992919D01*
X97223750Y-81992919D01*
X97229063Y-81994343D01*
X97457150Y-82014298D01*
X97685237Y-81994343D01*
X97690550Y-81992919D01*
X97690552Y-81992919D01*
X97901083Y-81936507D01*
X97901085Y-81936506D01*
X97906393Y-81935084D01*
X97912385Y-81932290D01*
X98108912Y-81840649D01*
X98108917Y-81840646D01*
X98113899Y-81838323D01*
X98187393Y-81786862D01*
X99235643Y-81786862D01*
X99244939Y-81798877D01*
X99296144Y-81834731D01*
X99305639Y-81840214D01*
X99503097Y-81932290D01*
X99513389Y-81936036D01*
X99723838Y-81992425D01*
X99734631Y-81994328D01*
X99951675Y-82013317D01*
X99962625Y-82013317D01*
X100179669Y-81994328D01*
X100190462Y-81992425D01*
X100400911Y-81936036D01*
X100411203Y-81932290D01*
X100608661Y-81840214D01*
X100618156Y-81834731D01*
X100670198Y-81798291D01*
X100678574Y-81787812D01*
X100671506Y-81774366D01*
X99969962Y-81072822D01*
X99956018Y-81065208D01*
X99954185Y-81065339D01*
X99947570Y-81069590D01*
X99242073Y-81775087D01*
X99235643Y-81786862D01*
X98187393Y-81786862D01*
X98218761Y-81764898D01*
X98296939Y-81710157D01*
X98296942Y-81710155D01*
X98301450Y-81706998D01*
X98463348Y-81545100D01*
X98594673Y-81357549D01*
X98596997Y-81352565D01*
X98598321Y-81350272D01*
X98649703Y-81301279D01*
X98719417Y-81287843D01*
X98785328Y-81314229D01*
X98816559Y-81350272D01*
X98823216Y-81361802D01*
X98859659Y-81413848D01*
X98870138Y-81422224D01*
X98883584Y-81415156D01*
X99585128Y-80713612D01*
X99591506Y-80701932D01*
X100321558Y-80701932D01*
X100321689Y-80703765D01*
X100325940Y-80710380D01*
X101031437Y-81415877D01*
X101043212Y-81422307D01*
X101055227Y-81413011D01*
X101091081Y-81361806D01*
X101096564Y-81352311D01*
X101188640Y-81154853D01*
X101192386Y-81144561D01*
X101248775Y-80934112D01*
X101250678Y-80923319D01*
X101269667Y-80706275D01*
X101269667Y-80700800D01*
X110103652Y-80700800D01*
X110123607Y-80928887D01*
X110125031Y-80934200D01*
X110125031Y-80934202D01*
X110162175Y-81072822D01*
X110182866Y-81150043D01*
X110185189Y-81155024D01*
X110185189Y-81155025D01*
X110277301Y-81352562D01*
X110277304Y-81352567D01*
X110279627Y-81357549D01*
X110410952Y-81545100D01*
X110572850Y-81706998D01*
X110577358Y-81710155D01*
X110577361Y-81710157D01*
X110655539Y-81764898D01*
X110760401Y-81838323D01*
X110765383Y-81840646D01*
X110765388Y-81840649D01*
X110961915Y-81932290D01*
X110967907Y-81935084D01*
X110973215Y-81936506D01*
X110973217Y-81936507D01*
X111183748Y-81992919D01*
X111183750Y-81992919D01*
X111189063Y-81994343D01*
X111417150Y-82014298D01*
X111645237Y-81994343D01*
X111650550Y-81992919D01*
X111650552Y-81992919D01*
X111861083Y-81936507D01*
X111861085Y-81936506D01*
X111866393Y-81935084D01*
X111872385Y-81932290D01*
X112068912Y-81840649D01*
X112068917Y-81840646D01*
X112073899Y-81838323D01*
X112147393Y-81786862D01*
X113195643Y-81786862D01*
X113204939Y-81798877D01*
X113256144Y-81834731D01*
X113265639Y-81840214D01*
X113463097Y-81932290D01*
X113473389Y-81936036D01*
X113683838Y-81992425D01*
X113694631Y-81994328D01*
X113911675Y-82013317D01*
X113922625Y-82013317D01*
X114139669Y-81994328D01*
X114150462Y-81992425D01*
X114360911Y-81936036D01*
X114371203Y-81932290D01*
X114568661Y-81840214D01*
X114578156Y-81834731D01*
X114630198Y-81798291D01*
X114638574Y-81787812D01*
X114631506Y-81774366D01*
X113929962Y-81072822D01*
X113916018Y-81065208D01*
X113914185Y-81065339D01*
X113907570Y-81069590D01*
X113202073Y-81775087D01*
X113195643Y-81786862D01*
X112147393Y-81786862D01*
X112178761Y-81764898D01*
X112256939Y-81710157D01*
X112256942Y-81710155D01*
X112261450Y-81706998D01*
X112423348Y-81545100D01*
X112554673Y-81357549D01*
X112556997Y-81352565D01*
X112558321Y-81350272D01*
X112609703Y-81301279D01*
X112679417Y-81287843D01*
X112745328Y-81314229D01*
X112776559Y-81350272D01*
X112783216Y-81361802D01*
X112819659Y-81413848D01*
X112830138Y-81422224D01*
X112843584Y-81415156D01*
X113545128Y-80713612D01*
X113551506Y-80701932D01*
X114281558Y-80701932D01*
X114281689Y-80703765D01*
X114285940Y-80710380D01*
X114991437Y-81415877D01*
X115003212Y-81422307D01*
X115015227Y-81413011D01*
X115051081Y-81361806D01*
X115056564Y-81352311D01*
X115148640Y-81154853D01*
X115152386Y-81144561D01*
X115208775Y-80934112D01*
X115210678Y-80923319D01*
X115229667Y-80706275D01*
X115229667Y-80695325D01*
X115210678Y-80478281D01*
X115208775Y-80467488D01*
X115152386Y-80257039D01*
X115148640Y-80246747D01*
X115056564Y-80049289D01*
X115051081Y-80039794D01*
X115014641Y-79987752D01*
X115004162Y-79979376D01*
X114990716Y-79986444D01*
X114289172Y-80687988D01*
X114281558Y-80701932D01*
X113551506Y-80701932D01*
X113552742Y-80699668D01*
X113552611Y-80697835D01*
X113548360Y-80691220D01*
X112842863Y-79985723D01*
X112831088Y-79979293D01*
X112819073Y-79988589D01*
X112783216Y-80039798D01*
X112776559Y-80051328D01*
X112725177Y-80100321D01*
X112655463Y-80113758D01*
X112589552Y-80087371D01*
X112558321Y-80051328D01*
X112556997Y-80049035D01*
X112554673Y-80044051D01*
X112423348Y-79856500D01*
X112261450Y-79694602D01*
X112256942Y-79691445D01*
X112256939Y-79691443D01*
X112146036Y-79613788D01*
X113195726Y-79613788D01*
X113202794Y-79627234D01*
X113904338Y-80328778D01*
X113918282Y-80336392D01*
X113920115Y-80336261D01*
X113926730Y-80332010D01*
X114632227Y-79626513D01*
X114638657Y-79614738D01*
X114629361Y-79602723D01*
X114578156Y-79566869D01*
X114568661Y-79561386D01*
X114371203Y-79469310D01*
X114360911Y-79465564D01*
X114150462Y-79409175D01*
X114139669Y-79407272D01*
X113922625Y-79388283D01*
X113911675Y-79388283D01*
X113694631Y-79407272D01*
X113683838Y-79409175D01*
X113473389Y-79465564D01*
X113463097Y-79469310D01*
X113265639Y-79561386D01*
X113256144Y-79566869D01*
X113204102Y-79603309D01*
X113195726Y-79613788D01*
X112146036Y-79613788D01*
X112131070Y-79603309D01*
X112073899Y-79563277D01*
X112068917Y-79560954D01*
X112068912Y-79560951D01*
X111871375Y-79468839D01*
X111871374Y-79468839D01*
X111866393Y-79466516D01*
X111861085Y-79465094D01*
X111861083Y-79465093D01*
X111650552Y-79408681D01*
X111650550Y-79408681D01*
X111645237Y-79407257D01*
X111417150Y-79387302D01*
X111189063Y-79407257D01*
X111183750Y-79408681D01*
X111183748Y-79408681D01*
X110973217Y-79465093D01*
X110973215Y-79465094D01*
X110967907Y-79466516D01*
X110962926Y-79468839D01*
X110962925Y-79468839D01*
X110765388Y-79560951D01*
X110765383Y-79560954D01*
X110760401Y-79563277D01*
X110703230Y-79603309D01*
X110577361Y-79691443D01*
X110577358Y-79691445D01*
X110572850Y-79694602D01*
X110410952Y-79856500D01*
X110279627Y-80044051D01*
X110277304Y-80049033D01*
X110277301Y-80049038D01*
X110253388Y-80100321D01*
X110182866Y-80251557D01*
X110181444Y-80256865D01*
X110181443Y-80256867D01*
X110160169Y-80336261D01*
X110123607Y-80472713D01*
X110103652Y-80700800D01*
X101269667Y-80700800D01*
X101269667Y-80695325D01*
X101250678Y-80478281D01*
X101248775Y-80467488D01*
X101192386Y-80257039D01*
X101188640Y-80246747D01*
X101096564Y-80049289D01*
X101091081Y-80039794D01*
X101054641Y-79987752D01*
X101044162Y-79979376D01*
X101030716Y-79986444D01*
X100329172Y-80687988D01*
X100321558Y-80701932D01*
X99591506Y-80701932D01*
X99592742Y-80699668D01*
X99592611Y-80697835D01*
X99588360Y-80691220D01*
X98882863Y-79985723D01*
X98871088Y-79979293D01*
X98859073Y-79988589D01*
X98823216Y-80039798D01*
X98816559Y-80051328D01*
X98765177Y-80100321D01*
X98695463Y-80113758D01*
X98629552Y-80087371D01*
X98598321Y-80051328D01*
X98596997Y-80049035D01*
X98594673Y-80044051D01*
X98463348Y-79856500D01*
X98301450Y-79694602D01*
X98296942Y-79691445D01*
X98296939Y-79691443D01*
X98186036Y-79613788D01*
X99235726Y-79613788D01*
X99242794Y-79627234D01*
X99944338Y-80328778D01*
X99958282Y-80336392D01*
X99960115Y-80336261D01*
X99966730Y-80332010D01*
X100672227Y-79626513D01*
X100678657Y-79614738D01*
X100669361Y-79602723D01*
X100618156Y-79566869D01*
X100608661Y-79561386D01*
X100411203Y-79469310D01*
X100400911Y-79465564D01*
X100190462Y-79409175D01*
X100179669Y-79407272D01*
X99962625Y-79388283D01*
X99951675Y-79388283D01*
X99734631Y-79407272D01*
X99723838Y-79409175D01*
X99513389Y-79465564D01*
X99503097Y-79469310D01*
X99305639Y-79561386D01*
X99296144Y-79566869D01*
X99244102Y-79603309D01*
X99235726Y-79613788D01*
X98186036Y-79613788D01*
X98171070Y-79603309D01*
X98113899Y-79563277D01*
X98108917Y-79560954D01*
X98108912Y-79560951D01*
X97911375Y-79468839D01*
X97911374Y-79468839D01*
X97906393Y-79466516D01*
X97901085Y-79465094D01*
X97901083Y-79465093D01*
X97690552Y-79408681D01*
X97690550Y-79408681D01*
X97685237Y-79407257D01*
X97457150Y-79387302D01*
X97229063Y-79407257D01*
X97223750Y-79408681D01*
X97223748Y-79408681D01*
X97013217Y-79465093D01*
X97013215Y-79465094D01*
X97007907Y-79466516D01*
X97002926Y-79468839D01*
X97002925Y-79468839D01*
X96805388Y-79560951D01*
X96805383Y-79560954D01*
X96800401Y-79563277D01*
X96743230Y-79603309D01*
X96617361Y-79691443D01*
X96617358Y-79691445D01*
X96612850Y-79694602D01*
X96450952Y-79856500D01*
X96319627Y-80044051D01*
X96317304Y-80049033D01*
X96317301Y-80049038D01*
X96293388Y-80100321D01*
X96222866Y-80251557D01*
X96221444Y-80256865D01*
X96221443Y-80256867D01*
X96200169Y-80336261D01*
X96163607Y-80472713D01*
X96143652Y-80700800D01*
X30619400Y-80700800D01*
X30619400Y-74095366D01*
X45195977Y-74095366D01*
X45226285Y-74229846D01*
X45229365Y-74239675D01*
X45309490Y-74437003D01*
X45314133Y-74446194D01*
X45425414Y-74627788D01*
X45431497Y-74636099D01*
X45570931Y-74797066D01*
X45578300Y-74804283D01*
X45742154Y-74940316D01*
X45750601Y-74946231D01*
X45934476Y-75053679D01*
X45943762Y-75058129D01*
X46142721Y-75134103D01*
X46152619Y-75136979D01*
X46255970Y-75158006D01*
X46270019Y-75156810D01*
X46273720Y-75146465D01*
X46273720Y-75145917D01*
X46781720Y-75145917D01*
X46785784Y-75159759D01*
X46799198Y-75161793D01*
X46805904Y-75160934D01*
X46815982Y-75158792D01*
X47019975Y-75097591D01*
X47029562Y-75093833D01*
X47220815Y-75000139D01*
X47229665Y-74994864D01*
X47403048Y-74871192D01*
X47410920Y-74864539D01*
X47561772Y-74714212D01*
X47568450Y-74706365D01*
X47692723Y-74533420D01*
X47698033Y-74524583D01*
X47792390Y-74333667D01*
X47796189Y-74324072D01*
X47858097Y-74120310D01*
X47860275Y-74110237D01*
X47861706Y-74099362D01*
X47861083Y-74095366D01*
X51515497Y-74095366D01*
X51545805Y-74229846D01*
X51548885Y-74239675D01*
X51629010Y-74437003D01*
X51633653Y-74446194D01*
X51744934Y-74627788D01*
X51751017Y-74636099D01*
X51890451Y-74797066D01*
X51897820Y-74804283D01*
X52061674Y-74940316D01*
X52070121Y-74946231D01*
X52253996Y-75053679D01*
X52263282Y-75058129D01*
X52462241Y-75134103D01*
X52472139Y-75136979D01*
X52575490Y-75158006D01*
X52589539Y-75156810D01*
X52593240Y-75146465D01*
X52593240Y-75145917D01*
X53101240Y-75145917D01*
X53105304Y-75159759D01*
X53118718Y-75161793D01*
X53125424Y-75160934D01*
X53135502Y-75158792D01*
X53339495Y-75097591D01*
X53349082Y-75093833D01*
X53540335Y-75000139D01*
X53549185Y-74994864D01*
X53722568Y-74871192D01*
X53730440Y-74864539D01*
X53881292Y-74714212D01*
X53887970Y-74706365D01*
X54012243Y-74533420D01*
X54017553Y-74524583D01*
X54111910Y-74333667D01*
X54115709Y-74324072D01*
X54177617Y-74120310D01*
X54179795Y-74110237D01*
X54181226Y-74099362D01*
X54180603Y-74095366D01*
X57835017Y-74095366D01*
X57865325Y-74229846D01*
X57868405Y-74239675D01*
X57948530Y-74437003D01*
X57953173Y-74446194D01*
X58064454Y-74627788D01*
X58070537Y-74636099D01*
X58209971Y-74797066D01*
X58217340Y-74804283D01*
X58381194Y-74940316D01*
X58389641Y-74946231D01*
X58573516Y-75053679D01*
X58582802Y-75058129D01*
X58781761Y-75134103D01*
X58791659Y-75136979D01*
X58895010Y-75158006D01*
X58909059Y-75156810D01*
X58912760Y-75146465D01*
X58912760Y-75145917D01*
X59420760Y-75145917D01*
X59424824Y-75159759D01*
X59438238Y-75161793D01*
X59444944Y-75160934D01*
X59455022Y-75158792D01*
X59659015Y-75097591D01*
X59668602Y-75093833D01*
X59859855Y-75000139D01*
X59868705Y-74994864D01*
X60042088Y-74871192D01*
X60049960Y-74864539D01*
X60200812Y-74714212D01*
X60207490Y-74706365D01*
X60331763Y-74533420D01*
X60337073Y-74524583D01*
X60431430Y-74333667D01*
X60435229Y-74324072D01*
X60497137Y-74120310D01*
X60499315Y-74110237D01*
X60500746Y-74099362D01*
X60500123Y-74095366D01*
X64154537Y-74095366D01*
X64184845Y-74229846D01*
X64187925Y-74239675D01*
X64268050Y-74437003D01*
X64272693Y-74446194D01*
X64383974Y-74627788D01*
X64390057Y-74636099D01*
X64529491Y-74797066D01*
X64536860Y-74804283D01*
X64700714Y-74940316D01*
X64709161Y-74946231D01*
X64893036Y-75053679D01*
X64902322Y-75058129D01*
X65101281Y-75134103D01*
X65111179Y-75136979D01*
X65214530Y-75158006D01*
X65228579Y-75156810D01*
X65232280Y-75146465D01*
X65232280Y-75145917D01*
X65740280Y-75145917D01*
X65744344Y-75159759D01*
X65757758Y-75161793D01*
X65764464Y-75160934D01*
X65774542Y-75158792D01*
X65978535Y-75097591D01*
X65988122Y-75093833D01*
X66179375Y-75000139D01*
X66188225Y-74994864D01*
X66361608Y-74871192D01*
X66369480Y-74864539D01*
X66520332Y-74714212D01*
X66527010Y-74706365D01*
X66651283Y-74533420D01*
X66656593Y-74524583D01*
X66750950Y-74333667D01*
X66754749Y-74324072D01*
X66816657Y-74120310D01*
X66818835Y-74110237D01*
X66820266Y-74099362D01*
X66819643Y-74095366D01*
X70474057Y-74095366D01*
X70504365Y-74229846D01*
X70507445Y-74239675D01*
X70587570Y-74437003D01*
X70592213Y-74446194D01*
X70703494Y-74627788D01*
X70709577Y-74636099D01*
X70849011Y-74797066D01*
X70856380Y-74804283D01*
X71020234Y-74940316D01*
X71028681Y-74946231D01*
X71212556Y-75053679D01*
X71221842Y-75058129D01*
X71420801Y-75134103D01*
X71430699Y-75136979D01*
X71534050Y-75158006D01*
X71548099Y-75156810D01*
X71551800Y-75146465D01*
X71551800Y-75145917D01*
X72059800Y-75145917D01*
X72063864Y-75159759D01*
X72077278Y-75161793D01*
X72083984Y-75160934D01*
X72094062Y-75158792D01*
X72298055Y-75097591D01*
X72307642Y-75093833D01*
X72498895Y-75000139D01*
X72507745Y-74994864D01*
X72681128Y-74871192D01*
X72689000Y-74864539D01*
X72839852Y-74714212D01*
X72846530Y-74706365D01*
X72970803Y-74533420D01*
X72976113Y-74524583D01*
X73070470Y-74333667D01*
X73074269Y-74324072D01*
X73136177Y-74120310D01*
X73138355Y-74110237D01*
X73139786Y-74099362D01*
X73139163Y-74095366D01*
X76793577Y-74095366D01*
X76823885Y-74229846D01*
X76826965Y-74239675D01*
X76907090Y-74437003D01*
X76911733Y-74446194D01*
X77023014Y-74627788D01*
X77029097Y-74636099D01*
X77168531Y-74797066D01*
X77175900Y-74804283D01*
X77339754Y-74940316D01*
X77348201Y-74946231D01*
X77532076Y-75053679D01*
X77541362Y-75058129D01*
X77740321Y-75134103D01*
X77750219Y-75136979D01*
X77853570Y-75158006D01*
X77867619Y-75156810D01*
X77871320Y-75146465D01*
X77871320Y-75145917D01*
X78379320Y-75145917D01*
X78383384Y-75159759D01*
X78396798Y-75161793D01*
X78403504Y-75160934D01*
X78413582Y-75158792D01*
X78617575Y-75097591D01*
X78627162Y-75093833D01*
X78818415Y-75000139D01*
X78827265Y-74994864D01*
X79000648Y-74871192D01*
X79008520Y-74864539D01*
X79159372Y-74714212D01*
X79166050Y-74706365D01*
X79290323Y-74533420D01*
X79295633Y-74524583D01*
X79389990Y-74333667D01*
X79393789Y-74324072D01*
X79455697Y-74120310D01*
X79457875Y-74110237D01*
X79459306Y-74099362D01*
X79457095Y-74085178D01*
X79443937Y-74081400D01*
X78397435Y-74081400D01*
X78382196Y-74085875D01*
X78380991Y-74087265D01*
X78379320Y-74094948D01*
X78379320Y-75145917D01*
X77871320Y-75145917D01*
X77871320Y-74099515D01*
X77866845Y-74084276D01*
X77865455Y-74083071D01*
X77857772Y-74081400D01*
X76808545Y-74081400D01*
X76795014Y-74085373D01*
X76793577Y-74095366D01*
X73139163Y-74095366D01*
X73137575Y-74085178D01*
X73124417Y-74081400D01*
X72077915Y-74081400D01*
X72062676Y-74085875D01*
X72061471Y-74087265D01*
X72059800Y-74094948D01*
X72059800Y-75145917D01*
X71551800Y-75145917D01*
X71551800Y-74099515D01*
X71547325Y-74084276D01*
X71545935Y-74083071D01*
X71538252Y-74081400D01*
X70489025Y-74081400D01*
X70475494Y-74085373D01*
X70474057Y-74095366D01*
X66819643Y-74095366D01*
X66818055Y-74085178D01*
X66804897Y-74081400D01*
X65758395Y-74081400D01*
X65743156Y-74085875D01*
X65741951Y-74087265D01*
X65740280Y-74094948D01*
X65740280Y-75145917D01*
X65232280Y-75145917D01*
X65232280Y-74099515D01*
X65227805Y-74084276D01*
X65226415Y-74083071D01*
X65218732Y-74081400D01*
X64169505Y-74081400D01*
X64155974Y-74085373D01*
X64154537Y-74095366D01*
X60500123Y-74095366D01*
X60498535Y-74085178D01*
X60485377Y-74081400D01*
X59438875Y-74081400D01*
X59423636Y-74085875D01*
X59422431Y-74087265D01*
X59420760Y-74094948D01*
X59420760Y-75145917D01*
X58912760Y-75145917D01*
X58912760Y-74099515D01*
X58908285Y-74084276D01*
X58906895Y-74083071D01*
X58899212Y-74081400D01*
X57849985Y-74081400D01*
X57836454Y-74085373D01*
X57835017Y-74095366D01*
X54180603Y-74095366D01*
X54179015Y-74085178D01*
X54165857Y-74081400D01*
X53119355Y-74081400D01*
X53104116Y-74085875D01*
X53102911Y-74087265D01*
X53101240Y-74094948D01*
X53101240Y-75145917D01*
X52593240Y-75145917D01*
X52593240Y-74099515D01*
X52588765Y-74084276D01*
X52587375Y-74083071D01*
X52579692Y-74081400D01*
X51530465Y-74081400D01*
X51516934Y-74085373D01*
X51515497Y-74095366D01*
X47861083Y-74095366D01*
X47859495Y-74085178D01*
X47846337Y-74081400D01*
X46799835Y-74081400D01*
X46784596Y-74085875D01*
X46783391Y-74087265D01*
X46781720Y-74094948D01*
X46781720Y-75145917D01*
X46273720Y-75145917D01*
X46273720Y-74099515D01*
X46269245Y-74084276D01*
X46267855Y-74083071D01*
X46260172Y-74081400D01*
X45210945Y-74081400D01*
X45197414Y-74085373D01*
X45195977Y-74095366D01*
X30619400Y-74095366D01*
X30619400Y-72188316D01*
X30639402Y-72120195D01*
X30693058Y-72073702D01*
X30744581Y-72062319D01*
X45279905Y-71967785D01*
X45348154Y-71987343D01*
X45388157Y-72027948D01*
X45425007Y-72088084D01*
X45425011Y-72088089D01*
X45427707Y-72092488D01*
X45573970Y-72261338D01*
X45745846Y-72404032D01*
X45819675Y-72447174D01*
X45868399Y-72498812D01*
X45881470Y-72568595D01*
X45854739Y-72634367D01*
X45814282Y-72667727D01*
X45806177Y-72671946D01*
X45797458Y-72677436D01*
X45627153Y-72805305D01*
X45619446Y-72812148D01*
X45472310Y-72966117D01*
X45465824Y-72974127D01*
X45345818Y-73150049D01*
X45340720Y-73159023D01*
X45251058Y-73352183D01*
X45247495Y-73361870D01*
X45192109Y-73561583D01*
X45193632Y-73570007D01*
X45206012Y-73573400D01*
X47846064Y-73573400D01*
X47859595Y-73569427D01*
X47860900Y-73560347D01*
X47818934Y-73393275D01*
X47815614Y-73383524D01*
X47730692Y-73188214D01*
X47725825Y-73179139D01*
X47610146Y-73000326D01*
X47603856Y-72992157D01*
X47460526Y-72834640D01*
X47452993Y-72827615D01*
X47285859Y-72695622D01*
X47277276Y-72689920D01*
X47240322Y-72669520D01*
X47190351Y-72619087D01*
X47175579Y-72549645D01*
X47200695Y-72483239D01*
X47228047Y-72456632D01*
X47251517Y-72439891D01*
X47407580Y-72328573D01*
X47565816Y-72170889D01*
X47625314Y-72088089D01*
X47685774Y-72003949D01*
X47741769Y-71960301D01*
X47787278Y-71951478D01*
X49321065Y-71941502D01*
X51574340Y-71926848D01*
X51642587Y-71946405D01*
X51682590Y-71987010D01*
X51744527Y-72088083D01*
X51744528Y-72088084D01*
X51747227Y-72092488D01*
X51893490Y-72261338D01*
X52065366Y-72404032D01*
X52139195Y-72447174D01*
X52187919Y-72498812D01*
X52200990Y-72568595D01*
X52174259Y-72634367D01*
X52133802Y-72667727D01*
X52125697Y-72671946D01*
X52116978Y-72677436D01*
X51946673Y-72805305D01*
X51938966Y-72812148D01*
X51791830Y-72966117D01*
X51785344Y-72974127D01*
X51665338Y-73150049D01*
X51660240Y-73159023D01*
X51570578Y-73352183D01*
X51567015Y-73361870D01*
X51511629Y-73561583D01*
X51513152Y-73570007D01*
X51525532Y-73573400D01*
X54165584Y-73573400D01*
X54179115Y-73569427D01*
X54180420Y-73560347D01*
X54138454Y-73393275D01*
X54135134Y-73383524D01*
X54050212Y-73188214D01*
X54045345Y-73179139D01*
X53929666Y-73000326D01*
X53923376Y-72992157D01*
X53780046Y-72834640D01*
X53772513Y-72827615D01*
X53605379Y-72695622D01*
X53596796Y-72689920D01*
X53559842Y-72669520D01*
X53509871Y-72619087D01*
X53495099Y-72549645D01*
X53520215Y-72483239D01*
X53547567Y-72456632D01*
X53571037Y-72439891D01*
X53727100Y-72328573D01*
X53885336Y-72170889D01*
X53944834Y-72088089D01*
X54012675Y-71993677D01*
X54015693Y-71989477D01*
X54020191Y-71980376D01*
X54068307Y-71928171D01*
X54132327Y-71910211D01*
X54346969Y-71908815D01*
X57868772Y-71885911D01*
X57937021Y-71905469D01*
X57977024Y-71946073D01*
X57980336Y-71951478D01*
X58066747Y-72092488D01*
X58213010Y-72261338D01*
X58384886Y-72404032D01*
X58458715Y-72447174D01*
X58507439Y-72498812D01*
X58520510Y-72568595D01*
X58493779Y-72634367D01*
X58453322Y-72667727D01*
X58445217Y-72671946D01*
X58436498Y-72677436D01*
X58266193Y-72805305D01*
X58258486Y-72812148D01*
X58111350Y-72966117D01*
X58104864Y-72974127D01*
X57984858Y-73150049D01*
X57979760Y-73159023D01*
X57890098Y-73352183D01*
X57886535Y-73361870D01*
X57831149Y-73561583D01*
X57832672Y-73570007D01*
X57845052Y-73573400D01*
X60485104Y-73573400D01*
X60498635Y-73569427D01*
X60499940Y-73560347D01*
X60457974Y-73393275D01*
X60454654Y-73383524D01*
X60369732Y-73188214D01*
X60364865Y-73179139D01*
X60249186Y-73000326D01*
X60242896Y-72992157D01*
X60099566Y-72834640D01*
X60092033Y-72827615D01*
X59924899Y-72695622D01*
X59916316Y-72689920D01*
X59879362Y-72669520D01*
X59829391Y-72619087D01*
X59814619Y-72549645D01*
X59839735Y-72483239D01*
X59867087Y-72456632D01*
X59890557Y-72439891D01*
X60046620Y-72328573D01*
X60204856Y-72170889D01*
X60264354Y-72088089D01*
X60332195Y-71993677D01*
X60335213Y-71989477D01*
X60353993Y-71951478D01*
X60360088Y-71939147D01*
X60408202Y-71886941D01*
X60472226Y-71868978D01*
X64163205Y-71844973D01*
X64231454Y-71864531D01*
X64271457Y-71905135D01*
X64299856Y-71951478D01*
X64386267Y-72092488D01*
X64532530Y-72261338D01*
X64704406Y-72404032D01*
X64778235Y-72447174D01*
X64826959Y-72498812D01*
X64840030Y-72568595D01*
X64813299Y-72634367D01*
X64772842Y-72667727D01*
X64764737Y-72671946D01*
X64756018Y-72677436D01*
X64585713Y-72805305D01*
X64578006Y-72812148D01*
X64430870Y-72966117D01*
X64424384Y-72974127D01*
X64304378Y-73150049D01*
X64299280Y-73159023D01*
X64209618Y-73352183D01*
X64206055Y-73361870D01*
X64150669Y-73561583D01*
X64152192Y-73570007D01*
X64164572Y-73573400D01*
X66804624Y-73573400D01*
X66818155Y-73569427D01*
X66819460Y-73560347D01*
X66777494Y-73393275D01*
X66774174Y-73383524D01*
X66689252Y-73188214D01*
X66684385Y-73179139D01*
X66568706Y-73000326D01*
X66562416Y-72992157D01*
X66419086Y-72834640D01*
X66411553Y-72827615D01*
X66244419Y-72695622D01*
X66235836Y-72689920D01*
X66198882Y-72669520D01*
X66148911Y-72619087D01*
X66134139Y-72549645D01*
X66159255Y-72483239D01*
X66186607Y-72456632D01*
X66210077Y-72439891D01*
X66366140Y-72328573D01*
X66524376Y-72170889D01*
X66583874Y-72088089D01*
X66651715Y-71993677D01*
X66654733Y-71989477D01*
X66669153Y-71960301D01*
X66699986Y-71897915D01*
X66748100Y-71845708D01*
X66812124Y-71827745D01*
X70463616Y-71803997D01*
X70531865Y-71823555D01*
X70581178Y-71882590D01*
X70589066Y-71902016D01*
X70594088Y-71910211D01*
X70703091Y-72088088D01*
X70705787Y-72092488D01*
X70852050Y-72261338D01*
X71023926Y-72404032D01*
X71097755Y-72447174D01*
X71146479Y-72498812D01*
X71159550Y-72568595D01*
X71132819Y-72634367D01*
X71092362Y-72667727D01*
X71084257Y-72671946D01*
X71075538Y-72677436D01*
X70905233Y-72805305D01*
X70897526Y-72812148D01*
X70750390Y-72966117D01*
X70743904Y-72974127D01*
X70623898Y-73150049D01*
X70618800Y-73159023D01*
X70529138Y-73352183D01*
X70525575Y-73361870D01*
X70470189Y-73561583D01*
X70471712Y-73570007D01*
X70484092Y-73573400D01*
X73124144Y-73573400D01*
X73137675Y-73569427D01*
X73138980Y-73560347D01*
X73097014Y-73393275D01*
X73093694Y-73383524D01*
X73008772Y-73188214D01*
X73003905Y-73179139D01*
X72888226Y-73000326D01*
X72881936Y-72992157D01*
X72738606Y-72834640D01*
X72731073Y-72827615D01*
X72563939Y-72695622D01*
X72555356Y-72689920D01*
X72518402Y-72669520D01*
X72468431Y-72619087D01*
X72453659Y-72549645D01*
X72478775Y-72483239D01*
X72506127Y-72456632D01*
X72529597Y-72439891D01*
X72685660Y-72328573D01*
X72843896Y-72170889D01*
X72903394Y-72088089D01*
X72971235Y-71993677D01*
X72974253Y-71989477D01*
X72995541Y-71946405D01*
X73039884Y-71856682D01*
X73087997Y-71804475D01*
X73152022Y-71786512D01*
X76766491Y-71763005D01*
X76834740Y-71782563D01*
X76884053Y-71841598D01*
X76908586Y-71902016D01*
X76913608Y-71910211D01*
X77022611Y-72088088D01*
X77025307Y-72092488D01*
X77171570Y-72261338D01*
X77343446Y-72404032D01*
X77417275Y-72447174D01*
X77465999Y-72498812D01*
X77479070Y-72568595D01*
X77452339Y-72634367D01*
X77411882Y-72667727D01*
X77403777Y-72671946D01*
X77395058Y-72677436D01*
X77224753Y-72805305D01*
X77217046Y-72812148D01*
X77069910Y-72966117D01*
X77063424Y-72974127D01*
X76943418Y-73150049D01*
X76938320Y-73159023D01*
X76848658Y-73352183D01*
X76845095Y-73361870D01*
X76789709Y-73561583D01*
X76791232Y-73570007D01*
X76803612Y-73573400D01*
X79443664Y-73573400D01*
X79457195Y-73569427D01*
X79458500Y-73560347D01*
X79416534Y-73393275D01*
X79413214Y-73383524D01*
X79328292Y-73188214D01*
X79323425Y-73179139D01*
X79207746Y-73000326D01*
X79201456Y-72992157D01*
X79058126Y-72834640D01*
X79050593Y-72827615D01*
X78883459Y-72695622D01*
X78874876Y-72689920D01*
X78837922Y-72669520D01*
X78787951Y-72619087D01*
X78773179Y-72549645D01*
X78798295Y-72483239D01*
X78825647Y-72456632D01*
X78849117Y-72439891D01*
X79005180Y-72328573D01*
X79163416Y-72170889D01*
X79222914Y-72088089D01*
X79290755Y-71993677D01*
X79293773Y-71989477D01*
X79312553Y-71951478D01*
X79379783Y-71815449D01*
X79427897Y-71763242D01*
X79491921Y-71745279D01*
X105565268Y-71575704D01*
X125737682Y-71444508D01*
X125805930Y-71464066D01*
X125852771Y-71517418D01*
X125864500Y-71570505D01*
X125864500Y-83552157D01*
X125863763Y-83565764D01*
X125859676Y-83603388D01*
X125860213Y-83609523D01*
X125864050Y-83653388D01*
X125864379Y-83658214D01*
X125864500Y-83660686D01*
X125864500Y-83663769D01*
X125864801Y-83666837D01*
X125868690Y-83706506D01*
X125868812Y-83707819D01*
X125876913Y-83800413D01*
X125878400Y-83805532D01*
X125878920Y-83810833D01*
X125905791Y-83899834D01*
X125906126Y-83900967D01*
X125923918Y-83962204D01*
X125932091Y-83990336D01*
X125934544Y-83995068D01*
X125936084Y-84000169D01*
X125938978Y-84005612D01*
X125979731Y-84082260D01*
X125980343Y-84083426D01*
X126005551Y-84132056D01*
X126023108Y-84165926D01*
X126026431Y-84170089D01*
X126028934Y-84174796D01*
X126087755Y-84246918D01*
X126088446Y-84247774D01*
X126119738Y-84286973D01*
X126122242Y-84289477D01*
X126122884Y-84290195D01*
X126126585Y-84294528D01*
X126153935Y-84328062D01*
X126158682Y-84331989D01*
X126158684Y-84331991D01*
X126189262Y-84357287D01*
X126198042Y-84365277D01*
X127356295Y-85523529D01*
X127390320Y-85585841D01*
X127393200Y-85612624D01*
X127393200Y-85703602D01*
X127407878Y-85882137D01*
X127466406Y-86115144D01*
X127562203Y-86335463D01*
X127647085Y-86466670D01*
X127686955Y-86528299D01*
X127692698Y-86537177D01*
X127696172Y-86540995D01*
X127696179Y-86541004D01*
X127812894Y-86669272D01*
X127843946Y-86733117D01*
X127845700Y-86754071D01*
X127845700Y-93970707D01*
X127825698Y-94038828D01*
X127772042Y-94085321D01*
X127750437Y-94092743D01*
X127743884Y-94093455D01*
X127736489Y-94096227D01*
X127736486Y-94096228D01*
X127721570Y-94101820D01*
X127607495Y-94144585D01*
X127490939Y-94231939D01*
X127403585Y-94348495D01*
X127352455Y-94484884D01*
X127345700Y-94547066D01*
X127345700Y-96643334D01*
X127352455Y-96705516D01*
X127403585Y-96841905D01*
X127490939Y-96958461D01*
X127607495Y-97045815D01*
X127743884Y-97096945D01*
X127806066Y-97103700D01*
X129902334Y-97103700D01*
X129964516Y-97096945D01*
X130100905Y-97045815D01*
X130217461Y-96958461D01*
X130304815Y-96841905D01*
X130355945Y-96705516D01*
X130362700Y-96643334D01*
X130362700Y-94547066D01*
X130355945Y-94484884D01*
X130304815Y-94348495D01*
X130217461Y-94231939D01*
X130100905Y-94144585D01*
X129986830Y-94101820D01*
X129971914Y-94096228D01*
X129971911Y-94096227D01*
X129964516Y-94093455D01*
X129958747Y-94092828D01*
X129897909Y-94058074D01*
X129865087Y-93995119D01*
X129862700Y-93970707D01*
X129862700Y-86752687D01*
X129882702Y-86684566D01*
X129897606Y-86665636D01*
X129989930Y-86569025D01*
X129989931Y-86569024D01*
X129993501Y-86565288D01*
X130018735Y-86528297D01*
X130073644Y-86483296D01*
X130144168Y-86475125D01*
X130207916Y-86506379D01*
X130228611Y-86530860D01*
X130232698Y-86537177D01*
X130236172Y-86540995D01*
X130236179Y-86541004D01*
X130352894Y-86669272D01*
X130383946Y-86733117D01*
X130385700Y-86754071D01*
X130385700Y-92993357D01*
X130384963Y-93006964D01*
X130384298Y-93013091D01*
X130380876Y-93044588D01*
X130381413Y-93050723D01*
X130385250Y-93094588D01*
X130385579Y-93099414D01*
X130385700Y-93101886D01*
X130385700Y-93104969D01*
X130386001Y-93108037D01*
X130389890Y-93147706D01*
X130390012Y-93149019D01*
X130392607Y-93178678D01*
X130398113Y-93241613D01*
X130399600Y-93246732D01*
X130400120Y-93252033D01*
X130426991Y-93341034D01*
X130427326Y-93342167D01*
X130453291Y-93431536D01*
X130455744Y-93436268D01*
X130457284Y-93441369D01*
X130460178Y-93446812D01*
X130500931Y-93523460D01*
X130501543Y-93524626D01*
X130541219Y-93601166D01*
X130544308Y-93607126D01*
X130547631Y-93611289D01*
X130550134Y-93615996D01*
X130608955Y-93688118D01*
X130609646Y-93688974D01*
X130640938Y-93728173D01*
X130643442Y-93730677D01*
X130644084Y-93731395D01*
X130647785Y-93735728D01*
X130675135Y-93769262D01*
X130679882Y-93773189D01*
X130679884Y-93773191D01*
X130710462Y-93798487D01*
X130719242Y-93806477D01*
X132386303Y-95473538D01*
X132420329Y-95535850D01*
X132422820Y-95572519D01*
X132421035Y-95595200D01*
X132439665Y-95831911D01*
X132495095Y-96062794D01*
X132496988Y-96067365D01*
X132496989Y-96067367D01*
X132499407Y-96073203D01*
X132585960Y-96282163D01*
X132588546Y-96286383D01*
X132707441Y-96480402D01*
X132707445Y-96480408D01*
X132710024Y-96484616D01*
X132864231Y-96665169D01*
X133044784Y-96819376D01*
X133048992Y-96821955D01*
X133048998Y-96821959D01*
X133243017Y-96940854D01*
X133247237Y-96943440D01*
X133251807Y-96945333D01*
X133251811Y-96945335D01*
X133462033Y-97032411D01*
X133466606Y-97034305D01*
X133514549Y-97045815D01*
X133692676Y-97088580D01*
X133692682Y-97088581D01*
X133697489Y-97089735D01*
X133934200Y-97108365D01*
X134170911Y-97089735D01*
X134175718Y-97088581D01*
X134175724Y-97088580D01*
X134353851Y-97045815D01*
X134401794Y-97034305D01*
X134406367Y-97032411D01*
X134616589Y-96945335D01*
X134616593Y-96945333D01*
X134621163Y-96943440D01*
X134625383Y-96940854D01*
X134819402Y-96821959D01*
X134819408Y-96821955D01*
X134823616Y-96819376D01*
X135004169Y-96665169D01*
X135158376Y-96484616D01*
X135160955Y-96480408D01*
X135160959Y-96480402D01*
X135279854Y-96286383D01*
X135282440Y-96282163D01*
X135368994Y-96073203D01*
X135371411Y-96067367D01*
X135371412Y-96067365D01*
X135373305Y-96062794D01*
X135428735Y-95831911D01*
X135447365Y-95595200D01*
X135428735Y-95358489D01*
X135373305Y-95127606D01*
X135336251Y-95038149D01*
X135284335Y-94912811D01*
X135284333Y-94912807D01*
X135282440Y-94908237D01*
X135244847Y-94846891D01*
X135160959Y-94709998D01*
X135160955Y-94709992D01*
X135158376Y-94705784D01*
X135004169Y-94525231D01*
X134823616Y-94371024D01*
X134819408Y-94368445D01*
X134819402Y-94368441D01*
X134625383Y-94249546D01*
X134621163Y-94246960D01*
X134616593Y-94245067D01*
X134616589Y-94245065D01*
X134406367Y-94157989D01*
X134406365Y-94157988D01*
X134401794Y-94156095D01*
X134321591Y-94136840D01*
X134175724Y-94101820D01*
X134175718Y-94101819D01*
X134170911Y-94100665D01*
X133934200Y-94082035D01*
X133929270Y-94082423D01*
X133929269Y-94082423D01*
X133911518Y-94083820D01*
X133842038Y-94069224D01*
X133812537Y-94047303D01*
X132439605Y-92674371D01*
X132405579Y-92612059D01*
X132402700Y-92585276D01*
X132402700Y-87045113D01*
X132422702Y-86976992D01*
X132476358Y-86930499D01*
X132546632Y-86920395D01*
X132611212Y-86949889D01*
X132613868Y-86952362D01*
X132618439Y-86958461D01*
X132734995Y-87045815D01*
X132871384Y-87096945D01*
X132933566Y-87103700D01*
X134934834Y-87103700D01*
X134997016Y-87096945D01*
X135133405Y-87045815D01*
X135249961Y-86958461D01*
X135337315Y-86841905D01*
X135388445Y-86705516D01*
X135395200Y-86643334D01*
X135395200Y-84547066D01*
X135388445Y-84484884D01*
X135337315Y-84348495D01*
X135249961Y-84231939D01*
X135133405Y-84144585D01*
X134997016Y-84093455D01*
X134934834Y-84086700D01*
X134693700Y-84086700D01*
X134625579Y-84066698D01*
X134579086Y-84013042D01*
X134567700Y-83960700D01*
X134567700Y-76934954D01*
X134587702Y-76866833D01*
X134641358Y-76820340D01*
X134649470Y-76816972D01*
X134697497Y-76798967D01*
X134705905Y-76795815D01*
X134822461Y-76708461D01*
X134909815Y-76591905D01*
X134960945Y-76455516D01*
X134967700Y-76393334D01*
X134967700Y-74797066D01*
X134960945Y-74734884D01*
X134909815Y-74598495D01*
X134822461Y-74481939D01*
X134705905Y-74394585D01*
X134569516Y-74343455D01*
X134507334Y-74336700D01*
X133423700Y-74336700D01*
X133355579Y-74316698D01*
X133309086Y-74263042D01*
X133297700Y-74210700D01*
X133297700Y-71520523D01*
X133317702Y-71452402D01*
X133371358Y-71405909D01*
X133422881Y-71394526D01*
X139981081Y-71351873D01*
X140049330Y-71371431D01*
G37*
G04 #@! TD.AperFunction*
M02*
